<svg width="522" height="351" viewBox="0 0 522 351" fill="none" xmlns="http://www.w3.org/2000/svg">
<path d="M170.06 251.91C170.06 251.91 167.382 253.082 171.901 253.417C177.257 253.919 180.103 253.751 185.961 252.914C185.961 252.914 187.468 253.584 189.644 254.253C176.42 258.438 159.515 254.086 170.06 251.91ZM168.386 246.554C168.386 246.554 165.54 248.06 169.892 248.395C175.583 248.897 180.27 248.897 188.137 247.726C188.137 247.726 189.309 248.562 190.983 248.897C174.914 252.412 156.837 249.399 168.386 246.554Z" fill="#5381A0"/>
<path d="M182.111 237.348C185.459 240.026 181.274 242.537 181.274 242.537C181.274 242.537 189.643 239.356 185.793 235.506C182.278 231.824 179.433 230.15 194.33 223.79C194.33 223.957 171.064 228.142 182.111 237.348Z" fill="#E57025"/>
<path d="M200.021 259.275C200.021 259.275 202.03 260.447 197.845 261.283C190.146 262.957 165.875 263.459 159.013 261.283C156.502 260.447 161.189 259.442 162.528 259.275C164.034 259.107 164.871 259.107 164.871 259.107C162.193 257.768 147.463 261.786 157.339 262.957C184.622 266.138 207.051 261.618 200.021 259.275ZM171.399 244.378C171.399 244.378 159.013 246.554 167.047 247.223C170.395 247.558 177.09 247.558 183.45 247.056C188.639 246.721 193.661 246.052 193.661 246.052C193.661 246.052 191.819 246.554 190.48 247.223C177.927 249.567 153.656 248.562 160.686 246.052C166.712 244.043 171.399 244.378 171.399 244.378ZM193.661 253.249C206.382 248.395 200.523 243.876 196.339 244.545C195.335 244.713 194.832 244.88 194.832 244.88C194.832 244.88 195.167 244.378 196.004 244.21C204.206 242.202 210.399 250.404 193.326 253.584C193.493 253.584 193.661 253.416 193.661 253.249Z" fill="#5381A0"/>
<path d="M185.794 213.914C185.794 213.914 192.824 219.103 179.098 226.97C168.051 233.331 176.588 236.846 179.098 241.03C172.57 236.846 167.884 233.163 171.064 229.648C175.751 224.459 188.639 221.949 185.794 213.914Z" fill="#E57025"/>
<path d="M172.57 262.957C184.789 263.459 203.703 262.623 204.205 258.438C204.205 258.438 203.368 259.944 193.995 261.284C183.45 262.79 170.561 262.623 163.029 261.618C162.862 261.618 164.536 262.623 172.57 262.957Z" fill="#5381A0"/>
<path d="M105.953 197.176V153.991H111.644V175.416L133.068 153.991H140.768L122.691 171.399L141.605 197.009H134.073L118.674 175.249L111.644 182.112V197.009H105.953V197.176Z" fill="#2E4D5D"/>
<path d="M143.781 181.61C143.781 175.751 145.454 171.567 148.635 168.721C151.313 166.378 154.66 165.206 158.51 165.206C162.862 165.206 166.377 166.545 169.055 169.391C171.733 172.236 173.072 176.086 173.072 181.108C173.072 185.125 172.403 188.305 171.231 190.648C170.06 192.992 168.218 194.665 166.042 196.005C163.866 197.344 161.188 197.846 158.51 197.846C154.158 197.846 150.643 196.507 147.965 193.661C145.287 190.816 143.781 186.799 143.781 181.61ZM149.137 181.61C149.137 185.627 149.974 188.64 151.815 190.648C153.656 192.657 155.832 193.661 158.343 193.661C161.021 193.661 163.197 192.657 164.871 190.648C166.544 188.64 167.549 185.627 167.549 181.442C167.549 177.593 166.712 174.58 164.871 172.738C163.029 170.897 160.853 169.726 158.343 169.726C155.665 169.726 153.489 170.73 151.815 172.738C150.141 174.747 149.137 177.593 149.137 181.61Z" fill="#2E4D5D"/>
<path d="M190.815 192.49L191.652 197.177C190.145 197.511 188.806 197.679 187.635 197.679C185.793 197.679 184.287 197.344 183.115 196.842C181.944 196.34 181.274 195.503 180.939 194.498C180.604 193.494 180.27 191.486 180.27 188.305V170.395H176.42V166.211H180.27V158.511L185.459 155.331V166.211H190.815V170.395H185.459V188.64C185.459 190.146 185.626 191.151 185.793 191.486C185.961 191.82 186.295 192.322 186.63 192.49C186.965 192.657 187.635 192.825 188.471 192.825C188.974 192.657 189.81 192.49 190.815 192.49Z" fill="#2E4D5D"/>
<path d="M195.837 197.176V153.991H201.193V197.176H195.837Z" fill="#2E4D5D"/>
<path d="M209.393 160.185V153.991H214.75V160.017H209.393V160.185ZM209.393 197.176V165.876H214.75V197.176H209.393Z" fill="#2E4D5D"/>
<path d="M222.784 197.176V165.876H227.471V170.395C229.814 166.88 233.162 165.206 237.347 165.206C239.188 165.206 241.029 165.541 242.535 166.211C244.042 166.88 245.213 167.717 246.05 168.889C246.887 170.06 247.389 171.232 247.724 172.738C247.892 173.743 248.059 175.417 248.059 177.927V197.176H242.703V178.095C242.703 175.919 242.535 174.245 242.033 173.241C241.531 172.236 240.862 171.399 239.857 170.73C238.853 170.06 237.514 169.726 236.175 169.726C233.999 169.726 231.99 170.395 230.316 171.902C228.643 173.408 227.806 176.086 227.806 180.103V197.176H222.784Z" fill="#2E4D5D"/>
<path d="M72.979 154.828L51.7214 177.425V197.511L72.979 176.086L94.0691 154.828H72.979Z" fill="url(#paint0_linear_1_218)"/>
<path d="M51.3866 197.511L72.6441 176.086L93.7343 197.511H51.3866Z" fill="url(#paint1_linear_1_218)"/>
<path d="M51.7214 154.828H72.979L51.7214 177.425V154.828Z" fill="url(#paint2_linear_1_218)"/>
<path d="M286.391 194.665V165.876H299.112C301.623 165.876 303.631 166.21 304.97 166.712C306.309 167.215 307.314 168.219 308.15 169.391C308.987 170.562 309.322 172.069 309.322 173.743C309.322 175.751 308.653 177.425 307.314 178.931C305.975 180.438 303.966 181.275 301.12 181.609C302.125 182.112 302.962 182.614 303.464 183.116C304.635 184.12 305.64 185.459 306.644 186.966L311.665 194.833H306.811L302.962 188.807C301.79 187.133 300.953 185.794 300.284 184.79C299.614 183.785 298.944 183.283 298.275 182.949C297.605 182.614 297.103 182.279 296.601 182.112C296.099 181.944 295.429 181.944 294.425 181.944H290.073V194.665H286.391ZM290.241 178.597H298.442C300.116 178.597 301.623 178.429 302.459 178.094C303.296 177.76 304.133 177.09 304.635 176.421C305.138 175.751 305.472 174.747 305.472 173.91C305.472 172.571 304.97 171.399 303.966 170.562C302.962 169.725 301.455 169.223 299.279 169.223H290.241V178.597Z" fill="#2E4D5D"/>
<path d="M329.074 187.97L332.756 188.472C332.254 190.648 331.082 192.322 329.576 193.494C328.069 194.665 326.061 195.335 323.55 195.335C320.537 195.335 318.026 194.331 316.353 192.489C314.679 190.648 313.674 187.97 313.674 184.622C313.674 181.107 314.511 178.429 316.353 176.421C318.194 174.412 320.537 173.575 323.383 173.575C326.228 173.575 328.404 174.579 330.245 176.421C332.086 178.262 332.923 180.94 332.923 184.455C332.923 184.622 332.923 184.957 332.923 185.459H317.357C317.524 187.803 318.194 189.476 319.365 190.648C320.537 191.82 322.043 192.489 323.717 192.489C325.056 192.489 326.061 192.155 327.065 191.485C328.069 190.815 328.571 189.476 329.074 187.97ZM317.524 182.279H329.074C328.906 180.605 328.404 179.266 327.734 178.262C326.563 176.923 325.224 176.253 323.383 176.253C321.709 176.253 320.37 176.755 319.365 177.927C318.361 179.099 317.692 180.438 317.524 182.279Z" fill="#2E4D5D"/>
<path d="M344.975 191.485L345.478 194.665C344.473 194.833 343.636 195 342.799 195C341.46 195 340.456 194.833 339.787 194.331C339.117 193.828 338.615 193.326 338.28 192.657C337.945 191.987 337.778 190.648 337.778 188.472V176.421H335.267V173.743H337.778V168.554L341.293 166.378V173.575H344.808V176.253H341.46V188.472C341.46 189.477 341.46 190.146 341.628 190.481C341.795 190.816 341.963 190.983 342.297 191.15C342.632 191.318 342.967 191.485 343.469 191.485C343.804 191.653 344.306 191.485 344.975 191.485Z" fill="#2E4D5D"/>
<path d="M348.323 194.665V173.91H351.503V177.09C352.34 175.584 353.009 174.579 353.679 174.245C354.348 173.91 355.185 173.575 356.022 173.575C357.194 173.575 358.366 173.91 359.705 174.747L358.533 178.094C357.696 177.592 356.859 177.258 356.022 177.258C355.185 177.258 354.516 177.425 354.014 177.927C353.511 178.429 353.009 179.099 352.675 179.936C352.34 181.275 352.005 182.614 352.005 184.12V195H348.323V194.665Z" fill="#2E4D5D"/>
<path d="M360.541 184.288C360.541 180.438 361.546 177.592 363.722 175.751C365.563 174.245 367.739 173.408 370.249 173.408C373.095 173.408 375.438 174.412 377.28 176.253C379.121 178.094 379.958 180.773 379.958 183.953C379.958 186.631 379.623 188.807 378.786 190.313C377.949 191.82 376.777 192.991 375.271 193.828C373.765 194.665 372.091 195.167 370.249 195.167C367.404 195.167 364.893 194.163 363.219 192.322C361.546 190.481 360.541 187.803 360.541 184.288ZM364.056 184.288C364.056 186.966 364.559 188.974 365.73 190.313C366.902 191.652 368.408 192.322 370.082 192.322C371.756 192.322 373.262 191.652 374.434 190.313C375.606 188.974 376.108 186.966 376.108 184.288C376.108 181.777 375.606 179.768 374.434 178.429C373.262 177.09 371.756 176.421 370.082 176.421C368.241 176.421 366.902 177.09 365.73 178.429C364.559 179.768 364.056 181.609 364.056 184.288Z" fill="#2E4D5D"/>
<path d="M384.979 194.665V176.588H381.799V173.91H384.979V171.734C384.979 170.395 385.146 169.223 385.314 168.554C385.649 167.717 386.318 166.88 387.155 166.378C387.992 165.876 389.164 165.541 390.837 165.541C391.842 165.541 393.013 165.708 394.185 165.876L393.683 168.888C393.013 168.721 392.176 168.721 391.674 168.721C390.67 168.721 389.833 168.888 389.331 169.391C388.829 169.893 388.661 170.73 388.661 171.901V173.742H392.679V176.421H388.661V194.498H384.979V194.665Z" fill="#2E4D5D"/>
<path d="M395.357 169.893V165.876H398.872V169.893H395.357ZM395.357 194.665V173.91H398.872V194.665H395.357Z" fill="#2E4D5D"/>
<path d="M411.928 191.485L412.43 194.665C411.425 194.833 410.589 195 409.752 195C408.413 195 407.408 194.833 406.739 194.331C406.069 193.828 405.567 193.326 405.232 192.657C404.898 191.987 404.73 190.648 404.73 188.472V176.421H402.219V173.743H404.73V168.554L408.245 166.378V173.575H411.76V176.253H408.413V188.472C408.413 189.477 408.413 190.146 408.58 190.481C408.747 190.816 408.915 190.983 409.25 191.15C409.584 191.318 409.919 191.485 410.421 191.485C410.756 191.653 411.258 191.485 411.928 191.485Z" fill="#2E4D5D"/>
<path d="M213.245 351H184.456V347.15H196.34V332.253H184.456V328.403H213.245V332.253H199.687V347.15H213.245V351Z" fill="#6D9DB7"/>
<path d="M213.245 321.541H184.456V317.691H213.245V321.541Z" fill="#6D9DB7"/>
<path d="M213.245 311.163H184.456V307.313H209.898V293.086H213.245V311.163Z" fill="#6D9DB7"/>
<path d="M213.245 284.214H187.803V293.755H184.456V270.991H187.803V280.532H213.245V284.214Z" fill="#6D9DB7"/>
<path d="M55.9058 236.678V215.086H60.2577L65.2792 230.318C65.7813 231.657 66.1161 232.829 66.2834 233.498C66.4508 232.661 66.953 231.49 67.4551 229.983L72.644 214.919H76.4938V236.511H73.6483V218.434L67.4551 236.511H64.9444L58.7513 218.099V236.511H55.9058V236.678Z" fill="#5085A1"/>
<path d="M87.207 236.678L78.8379 215.086H82.0182L87.5418 230.82C88.0439 232.159 88.3787 233.331 88.7134 234.335C89.0482 233.163 89.383 231.992 89.8851 230.82L95.7435 215.086H98.589L90.2199 236.678H87.207Z" fill="#5085A1"/>
<path d="M107.293 236.678L98.9238 215.086H102.104L107.628 230.82C108.13 232.159 108.465 233.331 108.799 234.335C109.134 233.163 109.469 231.992 109.971 230.82L115.829 215.086H118.675L110.306 236.678H107.293Z" fill="#5085A1"/>
<path d="M121.185 236.678V215.086H125.536L130.558 230.318C131.06 231.657 131.395 232.829 131.562 233.498C131.73 232.661 132.232 231.49 132.734 229.983L137.923 214.919H141.772V236.511H139.094V218.434L132.901 236.511H130.391L124.197 218.099V236.511H121.185V236.678Z" fill="#5085A1"/>
<path d="M78.1677 266.472V244.88H82.5196L87.5411 260.112C88.0432 261.451 88.378 262.623 88.5454 263.292C88.7127 262.455 89.2149 261.284 89.717 259.777L94.9059 244.713H98.7557V266.305H96.0776V248.228L89.8844 266.305H87.3737L81.1805 247.893V266.305H78.1677V266.472Z" fill="#6D9DB7"/>
<path d="M109.469 266.473L101.099 244.88H104.112L109.636 260.614C110.138 261.953 110.473 263.125 110.808 264.129C111.142 262.958 111.477 261.786 111.979 260.614L117.838 244.88H120.683L112.314 266.473H109.469Z" fill="#6D9DB7"/>
<path d="M123.528 266.473V244.88H131.73C133.237 244.88 134.241 244.88 135.078 245.048C136.082 245.215 137.086 245.55 137.756 246.052C138.425 246.554 139.095 247.224 139.43 248.06C139.765 248.897 140.099 249.902 140.099 251.073C140.099 252.915 139.597 254.421 138.425 255.76C137.254 257.099 135.078 257.601 132.065 257.601H126.541V266.305H123.528V266.473ZM126.374 255.258H131.898C133.739 255.258 135.078 254.923 135.747 254.254C136.417 253.584 136.919 252.58 136.919 251.408C136.919 250.571 136.752 249.734 136.249 249.065C135.747 248.395 135.245 248.061 134.408 247.726C133.906 247.558 133.069 247.558 131.73 247.558H126.207V255.258H126.374Z" fill="#6D9DB7"/>
<path d="M252.914 134.575L257.433 140.601L248.395 146.124L243.206 143.279C242.202 142.609 242.202 141.438 243.206 140.601L252.914 134.575Z" fill="#F89E1B"/>
<path d="M248.227 146.124L257.266 140.601L274.172 162.863L248.227 146.124Z" fill="#F47F20"/>
<path d="M245.883 128.047C245.046 127.043 245.381 125.871 246.553 125.536L274.003 119.678L283.377 138.927C283.712 139.597 283.879 141.438 283.879 141.438C283.879 141.438 283.712 143.112 283.377 143.614L274.171 162.695L245.883 128.047Z" fill="#FFCA29"/>
<path d="M248.228 146.125L274.339 162.863L236.344 155.331C235.172 154.996 235.005 154.159 236.009 153.489L248.228 146.125Z" fill="#F89E1B"/>
<path d="M273.502 113.485H251.91V98.9229H254.421V110.64H261.116V100.597H263.627V110.64H273.502V113.485Z" fill="#3F697F"/>
<path d="M254.923 95.5752H251.91V92.8971H254.923V95.5752ZM273.502 95.5752H257.768V92.8971H273.335V95.5752H273.502Z" fill="#3F697F"/>
<path d="M273.502 88.8802H257.768V86.5369H260.112C258.94 85.8673 258.27 85.3652 257.936 84.863C257.601 84.3609 257.433 83.8588 257.433 83.1892C257.433 82.3523 257.768 81.348 258.27 80.5111L260.781 81.348C260.446 82.0175 260.279 82.6871 260.279 83.3566C260.279 83.8588 260.446 84.5283 260.781 84.863C261.116 85.1978 261.618 85.7 262.288 85.8673C263.292 86.2021 264.296 86.3695 265.3 86.3695H273.502V88.8802Z" fill="#3F697F"/>
<path d="M268.314 68.1245L268.649 65.4464C270.323 65.9486 271.494 66.6181 272.331 67.7898C273.168 68.9615 273.67 70.4679 273.67 72.3091C273.67 74.6525 273.001 76.3263 271.494 77.6653C270.155 79.0044 268.147 79.6739 265.636 79.6739C262.958 79.6739 260.949 79.0044 259.443 77.6653C257.937 76.3263 257.267 74.4851 257.267 72.4765C257.267 70.4679 257.937 68.6267 259.443 67.2876C260.949 65.9486 262.791 65.2791 265.469 65.2791C265.636 65.2791 265.803 65.2791 266.138 65.2791V76.9958C267.812 76.8284 269.151 76.4936 270.155 75.4894C271.16 74.4851 271.494 73.4808 271.494 72.1417C271.494 71.1374 271.16 70.3005 270.658 69.631C270.155 68.9615 269.486 68.6267 268.314 68.1245ZM264.13 76.8284V68.1245C262.791 68.2919 261.786 68.6267 261.117 69.1288C260.112 69.9657 259.61 71.1374 259.61 72.4765C259.61 73.6482 259.945 74.6524 260.782 75.4894C261.619 76.3263 262.791 76.8284 264.13 76.8284Z" fill="#3F697F"/>
<path d="M273.502 59.5876V62.0984H251.91V59.4203H259.609C258.27 58.2486 257.434 56.9095 257.434 55.0683C257.434 54.064 257.601 53.2271 257.936 52.3902C258.27 51.5533 258.94 50.8838 259.609 50.2143C260.279 49.5447 261.116 49.21 262.12 48.8752C263.125 48.5404 264.129 48.373 265.3 48.373C267.979 48.373 269.987 49.0426 271.494 50.3816C273 51.7207 273.67 53.2271 273.67 55.0683C273.67 56.9095 272.833 58.416 271.326 59.4203H273.502V59.5876ZM265.468 59.755C267.309 59.755 268.648 59.4203 269.485 58.9181C270.824 58.0812 271.494 56.9095 271.494 55.5705C271.494 54.3988 270.991 53.3945 269.987 52.5576C268.983 51.7207 267.476 51.2185 265.468 51.2185C263.459 51.2185 261.953 51.5533 260.949 52.3902C259.944 53.2271 259.442 54.2314 259.442 55.4031C259.442 56.5748 259.944 57.5791 260.949 58.416C261.953 59.2529 263.627 59.755 265.468 59.755Z" fill="#3F697F"/>
<path d="M271.494 35.1503C272.33 36.1545 272.833 37.1588 273.335 37.9958C273.67 38.8327 273.837 39.837 273.837 40.8412C273.837 42.5151 273.335 43.8541 272.498 44.8584C271.661 45.8627 270.657 46.1975 269.318 46.1975C268.481 46.1975 267.811 46.0301 267.142 45.6953C266.472 45.3606 265.97 44.8584 265.635 44.3563C265.3 43.8541 264.966 43.1846 264.798 42.5151C264.631 42.0129 264.464 41.176 264.464 40.1717C264.129 37.9957 263.961 36.4893 263.627 35.485C263.292 35.485 262.957 35.485 262.957 35.485C261.953 35.485 261.116 35.6524 260.614 36.1545C259.944 36.8241 259.777 37.8284 259.777 39.1674C259.777 40.3391 259.944 41.3434 260.446 41.8455C260.949 42.3477 261.618 42.8498 262.79 43.1846L262.455 45.6953C261.283 45.5279 260.446 45.0258 259.777 44.5237C259.107 44.0215 258.605 43.1846 258.27 42.1803C257.936 41.176 257.768 40.0043 257.768 38.6653C257.768 37.3262 257.936 36.3219 258.27 35.485C258.605 34.6481 258.94 33.9786 259.442 33.6438C259.944 33.3091 260.446 32.9743 261.283 32.8069C261.785 32.6395 262.622 32.6395 263.794 32.6395H267.309C269.82 32.6395 271.326 32.6395 271.996 32.4721C272.665 32.3048 273.335 32.1374 273.837 31.8026V34.6481C272.833 34.8155 272.163 35.1503 271.494 35.1503ZM265.635 35.3176C265.97 36.3219 266.305 37.661 266.64 39.6696C266.807 40.8412 266.974 41.5108 267.142 42.0129C267.309 42.5151 267.644 42.8498 267.979 43.0172C268.313 43.1846 268.815 43.352 269.318 43.352C269.987 43.352 270.657 43.0172 271.159 42.5151C271.661 42.0129 271.828 41.176 271.828 40.1717C271.828 39.1674 271.661 38.1631 271.159 37.4936C270.657 36.8241 270.155 36.1545 269.318 35.8198C268.648 35.485 267.811 35.3176 266.64 35.3176H265.635Z" fill="#3F697F"/>
<path d="M268.815 29.6268L268.481 26.9487C269.485 26.7813 270.322 26.4466 270.824 25.777C271.326 25.1075 271.661 24.1032 271.661 22.9315C271.661 21.7599 271.494 20.7556 270.991 20.2534C270.489 19.7513 269.987 19.4165 269.318 19.4165C268.648 19.4165 268.313 19.7513 267.979 20.2534C267.811 20.5882 267.476 21.5925 267.142 22.9315C266.639 24.9401 266.305 26.2792 265.803 26.9487C265.468 27.6182 264.966 28.2878 264.296 28.6225C263.627 28.9573 262.957 29.1247 262.12 29.1247C261.451 29.1247 260.781 28.9573 260.112 28.6225C259.442 28.2878 259.107 27.953 258.605 27.2835C258.27 26.9487 258.103 26.2792 257.768 25.6097C257.433 24.9401 257.433 24.1032 257.433 23.2663C257.433 22.0946 257.601 20.923 257.936 20.086C258.27 19.0818 258.773 18.4122 259.442 18.0775C260.112 17.7427 260.781 17.4079 261.785 17.2405L262.12 19.7513C261.283 19.9187 260.614 20.2534 260.279 20.7556C259.777 21.2577 259.609 22.0946 259.609 23.0989C259.609 24.2706 259.777 25.1075 260.279 25.777C260.781 26.4466 261.116 26.6139 261.618 26.6139C261.953 26.6139 262.288 26.4466 262.622 26.2792C262.957 26.1118 263.124 25.777 263.292 25.2749C263.459 24.9401 263.627 24.2706 263.961 22.9315C264.464 21.0903 264.798 19.7513 265.133 19.0818C265.468 18.4122 265.97 17.7427 266.472 17.4079C266.974 17.0732 267.811 16.7384 268.815 16.7384C269.652 16.7384 270.489 17.0732 271.326 17.5753C272.163 18.0775 272.665 18.9144 273.167 19.7513C273.67 20.5882 273.837 21.7599 273.837 23.0989C273.837 25.1075 273.335 26.6139 272.498 27.7856C271.661 28.6225 270.489 29.2921 268.815 29.6268Z" fill="#3F697F"/>
<path d="M268.314 2.8455L268.649 0.167382C270.323 0.669528 271.494 1.33906 272.331 2.51073C273.168 3.68241 273.67 5.18884 273.67 7.03005C273.67 9.3734 273.001 11.0472 271.494 12.3863C270.155 13.7253 268.147 14.3949 265.636 14.3949C262.958 14.3949 260.949 13.7253 259.443 12.3863C257.937 11.0472 257.267 9.20601 257.267 7.19743C257.267 5.18884 257.937 3.34764 259.443 2.00859C260.949 0.669528 262.791 0 265.469 0C265.636 0 265.803 0 266.138 0V11.7167C267.812 11.5494 269.151 11.2146 270.155 10.2103C271.16 9.20601 271.494 8.20172 271.494 6.86267C271.494 5.85837 271.16 5.02146 270.658 4.35193C270.155 3.68241 269.486 3.18026 268.314 2.8455ZM264.13 11.5494V2.8455C262.791 3.01288 261.786 3.34764 261.117 3.84979C260.112 4.6867 259.61 5.85837 259.61 7.19743C259.61 8.3691 259.945 9.3734 260.782 10.2103C261.619 11.0472 262.791 11.382 264.13 11.5494Z" fill="#3F697F"/>
<path d="M436.03 137.588C434.021 126.373 439.378 115.493 452.099 114.154C450.425 112.313 447.914 112.313 446.91 112.481C444.901 113.15 445.069 114.322 442.893 115.996C440.717 117.335 439.545 116.33 438.039 117.669C436.532 119.008 437.536 122.021 436.867 122.523C436.197 123.695 434.189 124.699 433.854 126.206C433.519 128.047 434.691 129.386 434.691 131.06C434.858 132.399 433.352 133.236 433.519 134.24C434.189 136.081 435.36 137.086 435.863 137.588C435.863 137.42 436.03 137.755 436.03 137.588Z" fill="#EC228D"/>
<path d="M458.459 122.022C457.957 122.022 457.622 121.687 457.622 121.185C457.622 120.683 457.957 120.348 458.459 120.348C458.961 120.348 459.296 120.683 459.296 121.185C459.296 121.687 458.961 122.022 458.459 122.022ZM436.532 138.76C434.523 129.052 440.716 120.85 452.768 124.867C459.798 129.052 468.669 128.717 469.004 126.039C470.008 122.859 464.485 116.164 456.283 114.322C440.047 111.309 431.343 129.052 436.532 138.76Z" fill="url(#paint3_radial_1_218)"/>
<path d="M463.146 139.931C465.489 140.266 467.832 139.597 470.008 137.923C466.828 141.605 462.811 143.446 458.292 143.949C460.468 145.79 462.644 146.627 464.652 146.292C458.961 147.798 454.275 146.124 448.584 140.266C448.249 141.773 449.923 144.283 451.596 145.79C441.888 141.438 441.051 128.215 452.935 124.867C440.382 118.841 433.519 130.558 436.867 140.099C440.214 147.464 449.086 153.155 458.794 151.815C463.481 151.146 470.511 147.966 473.523 140.099C471.515 141.94 467.832 143.614 466.159 143.614C471.682 140.768 474.695 136.082 473.858 129.554C472.687 132.232 471.18 134.408 469.339 135.914C473.356 129.554 472.687 126.373 469.674 122.691C471.85 128.717 469.172 135.245 463.146 139.931Z" fill="url(#paint4_radial_1_218)"/>
<path d="M460.3 146.627C459.965 146.627 461.304 147.129 458.626 146.459C455.948 145.79 453.27 145.12 448.416 140.099C448.081 141.605 449.755 144.116 451.429 145.622C455.948 148.803 452.935 147.296 459.798 149.807C460.3 148.803 460.3 147.798 460.3 146.627Z" fill="url(#paint5_linear_1_218)"/>
<path d="M451.597 121.52C451.597 121.52 452.266 120.683 452.433 120.181C452.768 119.679 453.103 118.842 453.103 118.842C453.103 118.842 448.416 117.335 447.412 117.168C443.897 118.172 443.897 119.511 445.906 121.854C446.073 122.189 451.597 121.52 451.597 121.52Z" fill="url(#paint6_linear_1_218)"/>
<path d="M293.588 144.953V126.039H303.129C304.97 126.039 306.477 126.206 307.481 126.541C308.485 126.876 309.322 127.545 309.824 128.382C310.326 129.219 310.661 130.224 310.661 131.228C310.661 132.567 310.159 133.739 309.155 134.576C308.15 135.412 306.644 136.082 304.635 136.417C305.472 136.752 305.974 137.086 306.309 137.421C307.146 138.091 307.983 138.927 308.652 139.932L312.335 145.121H308.82L305.974 141.103C305.137 139.932 304.468 139.095 303.966 138.425C303.464 137.756 302.961 137.421 302.459 137.086C301.957 136.752 301.622 136.752 301.12 136.584C300.786 136.584 300.283 136.417 299.614 136.417H296.266V144.953H293.588ZM296.434 134.408H302.627C303.966 134.408 304.97 134.241 305.64 134.073C306.309 133.906 306.979 133.404 307.313 132.902C307.648 132.4 307.816 131.73 307.816 131.228C307.816 130.391 307.481 129.554 306.644 129.052C305.974 128.55 304.803 128.215 303.129 128.215H296.266V134.408H296.434Z" fill="#2E4D5D"/>
<path d="M325.725 140.601L328.403 140.936C327.901 142.275 327.231 143.446 326.059 144.283C324.888 145.12 323.381 145.455 321.54 145.455C319.197 145.455 317.523 144.785 316.184 143.614C314.845 142.442 314.175 140.601 314.175 138.425C314.175 136.082 314.845 134.24 316.184 133.069C317.523 131.897 319.364 131.227 321.373 131.227C323.381 131.227 325.223 131.897 326.562 133.069C327.901 134.408 328.57 136.082 328.57 138.425C328.57 138.592 328.57 138.76 328.57 139.094H316.853C317.021 140.601 317.356 141.773 318.36 142.609C319.197 143.446 320.368 143.781 321.707 143.781C322.712 143.781 323.549 143.614 324.218 143.112C324.72 142.275 325.223 141.605 325.725 140.601ZM317.021 136.751H325.725C325.557 135.579 325.223 134.742 324.72 134.073C323.883 133.236 322.712 132.734 321.373 132.734C320.201 132.734 319.197 133.069 318.36 133.738C317.523 134.575 317.021 135.579 317.021 136.751Z" fill="#2E4D5D"/>
<path d="M341.961 143.279C340.957 143.948 339.952 144.618 339.115 144.785C338.279 145.12 337.274 145.287 336.27 145.287C334.596 145.287 333.257 144.953 332.253 144.116C331.248 143.279 330.914 142.442 330.914 141.27C330.914 140.601 331.081 139.931 331.416 139.429C331.751 138.927 332.253 138.425 332.755 138.09C333.257 137.755 333.927 137.421 334.596 137.253C335.098 137.086 335.935 137.086 336.939 136.918C339.115 136.751 340.622 136.416 341.626 136.081C341.626 135.747 341.626 135.579 341.626 135.412C341.626 134.408 341.459 133.738 340.957 133.403C340.287 132.901 339.283 132.566 337.944 132.566C336.772 132.566 335.768 132.734 335.266 133.069C334.596 133.403 334.261 134.073 333.927 135.077L331.416 134.742C331.583 133.738 332.085 132.901 332.588 132.399C333.09 131.73 333.927 131.395 334.931 131.06C335.935 130.725 337.107 130.558 338.446 130.558C339.785 130.558 340.789 130.725 341.626 130.893C342.463 131.06 343.133 131.562 343.467 131.897C343.802 132.232 344.137 132.901 344.304 133.571C344.472 133.906 344.472 134.742 344.472 135.747V138.927C344.472 141.103 344.472 142.442 344.639 143.112C344.806 143.614 344.974 144.283 345.309 144.785H342.463C342.128 144.618 341.961 143.948 341.961 143.279ZM341.626 138.09C340.622 138.425 339.283 138.76 337.274 138.927C336.103 139.094 335.433 139.262 334.931 139.429C334.429 139.597 334.094 139.931 333.927 140.266C333.759 140.601 333.592 140.936 333.592 141.438C333.592 142.107 333.927 142.609 334.429 142.944C334.931 143.279 335.768 143.614 336.772 143.614C337.776 143.614 338.781 143.446 339.45 142.944C340.287 142.609 340.789 141.94 341.124 141.27C341.459 140.768 341.626 139.931 341.626 138.927V138.09Z" fill="#2E4D5D"/>
<path d="M358.699 139.931L361.377 140.266C361.043 141.772 360.373 143.112 359.201 143.948C358.03 144.785 356.523 145.288 354.849 145.288C352.674 145.288 351 144.618 349.661 143.446C348.322 142.275 347.652 140.433 347.652 138.09C347.652 136.584 347.987 135.245 348.489 134.24C348.991 133.069 349.828 132.232 351 131.73C352.171 131.227 353.343 130.893 354.682 130.893C356.356 130.893 357.695 131.227 358.867 132.064C359.871 132.901 360.708 133.906 360.875 135.245L358.365 135.579C358.197 134.575 357.695 133.906 357.025 133.403C356.356 132.901 355.686 132.734 354.849 132.734C353.51 132.734 352.506 133.236 351.669 134.073C350.832 134.91 350.498 136.249 350.498 138.09C350.498 139.931 350.832 141.27 351.669 142.107C352.506 142.944 353.51 143.446 354.849 143.446C355.854 143.446 356.691 143.112 357.528 142.609C358.365 142.107 358.532 141.103 358.699 139.931Z" fill="#2E4D5D"/>
<path d="M369.244 142.944L369.579 144.953C368.91 145.12 368.24 145.12 367.571 145.12C366.566 145.12 365.897 144.953 365.395 144.785C364.892 144.451 364.558 144.116 364.223 143.781C363.888 143.446 363.888 142.442 363.888 141.103V133.236H361.88V131.395H363.888V128.047L366.566 126.708V131.562H369.244V133.403H366.566V141.438C366.566 142.107 366.566 142.609 366.734 142.777C366.901 142.944 366.901 143.112 367.236 143.279C367.403 143.446 367.738 143.446 368.073 143.446C368.407 142.944 368.91 142.944 369.244 142.944Z" fill="#2E4D5D"/>
<path d="M371.922 128.717V126.039H374.6V128.717H371.922ZM371.922 144.953V131.228H374.6V144.953H371.922Z" fill="#2E4D5D"/>
<path d="M382.97 144.953L376.944 131.227H379.789L383.137 139.429C383.472 140.266 383.807 141.27 384.141 142.275C384.309 141.605 384.643 140.601 385.146 139.597L388.661 131.227H391.339L385.48 144.953H382.97Z" fill="#2E4D5D"/>
<path d="M404.394 140.601L407.072 140.936C406.57 142.275 405.901 143.446 404.729 144.283C403.557 145.12 402.051 145.455 400.21 145.455C397.866 145.455 396.193 144.785 394.853 143.614C393.514 142.442 392.845 140.601 392.845 138.425C392.845 136.082 393.514 134.24 394.853 133.069C396.193 131.897 398.034 131.227 400.042 131.227C402.051 131.227 403.892 131.897 405.231 133.069C406.57 134.408 407.24 136.082 407.24 138.425C407.24 138.592 407.24 138.76 407.24 139.094H395.523C395.69 140.601 396.025 141.773 397.029 142.609C397.866 143.446 399.038 143.781 400.377 143.781C401.381 143.781 402.218 143.614 402.888 143.112C403.39 142.275 403.892 141.605 404.394 140.601ZM395.69 136.751H404.394C404.227 135.579 403.892 134.742 403.39 134.073C402.553 133.236 401.381 132.734 400.042 132.734C398.871 132.734 397.866 133.069 397.029 133.738C396.193 134.575 395.69 135.579 395.69 136.751Z" fill="#2E4D5D"/>
<path d="M408.58 144.953L416.949 135.077L409.584 125.871H412.932L416.782 130.725C417.619 131.73 418.121 132.567 418.456 133.069C418.958 132.399 419.46 131.73 420.129 130.893L424.481 125.871H427.662L420.129 134.91L428.331 144.953H424.816L419.46 138.09C419.125 137.755 418.79 137.253 418.456 136.751C417.953 137.421 417.619 137.923 417.451 138.258L412.095 144.953H408.58Z" fill="#2E4D5D"/>
<path d="M149.304 119.846C149.304 106.288 138.592 95.408 125.536 95.408C112.48 95.408 101.768 106.288 101.768 119.846C101.768 133.404 112.313 144.116 125.536 144.116C138.759 144.116 149.304 133.236 149.304 119.846Z" fill="#767576"/>
<path d="M108.799 102.605H142.108V136.919H108.799V102.605Z" fill="#BCBCBC"/>
<path d="M142.108 102.605L125.537 136.919L108.799 102.605H142.108Z" fill="white"/>
<path d="M207.889 224.459V202.867H212.241L217.262 218.099C217.765 219.438 218.099 220.61 218.267 221.279C218.434 220.442 218.936 219.271 219.438 217.764L224.627 202.7H228.477V224.292H225.799V206.215L219.606 224.292H217.095L210.902 205.88V224.292H207.889V224.459Z" fill="#2E4D5D"/>
<path d="M242.871 222.618C241.867 223.455 240.862 223.957 240.025 224.459C239.189 224.794 238.184 224.962 237.18 224.962C235.506 224.962 234.167 224.459 233.163 223.623C232.158 222.786 231.824 221.781 231.824 220.442C231.824 219.605 231.991 218.936 232.326 218.266C232.661 217.597 233.163 217.095 233.665 216.76C234.167 216.425 234.837 216.09 235.506 215.923C236.008 215.756 236.845 215.588 237.849 215.588C240.025 215.253 241.532 215.086 242.536 214.751C242.536 214.416 242.536 214.082 242.536 214.082C242.536 213.077 242.369 212.241 241.867 211.738C241.197 211.069 240.193 210.901 238.854 210.901C237.682 210.901 236.678 211.069 236.176 211.571C235.674 212.073 235.171 212.743 234.837 213.914L232.326 213.58C232.493 212.408 232.995 211.571 233.498 210.901C234 210.232 234.837 209.73 235.841 209.395C236.845 209.06 238.017 208.893 239.356 208.893C240.695 208.893 241.699 209.06 242.536 209.395C243.373 209.73 244.043 210.065 244.377 210.567C244.712 211.069 245.047 211.571 245.214 212.408C245.382 212.91 245.382 213.747 245.382 214.919V218.434C245.382 220.944 245.382 222.451 245.549 223.12C245.716 223.79 245.884 224.459 246.219 224.962H243.373C243.038 223.957 242.871 223.288 242.871 222.618ZM242.704 216.76C241.699 217.095 240.36 217.429 238.352 217.764C237.18 217.932 236.51 218.099 236.008 218.266C235.506 218.434 235.171 218.768 235.004 219.103C234.837 219.438 234.669 219.94 234.669 220.442C234.669 221.112 235.004 221.781 235.506 222.283C236.008 222.786 236.845 222.953 237.849 222.953C238.854 222.953 239.858 222.786 240.528 222.283C241.197 221.781 241.867 221.279 242.201 220.442C242.536 219.773 242.704 218.936 242.704 217.764V216.76Z" fill="#2E4D5D"/>
<path d="M255.257 222.116L255.592 224.46C254.922 224.627 254.253 224.627 253.583 224.627C252.579 224.627 251.91 224.46 251.407 224.125C250.905 223.79 250.571 223.456 250.236 222.953C249.901 222.451 249.901 221.447 249.901 219.773V210.902H247.892V208.893H249.901V205.043L252.579 203.537V209.061H255.257V211.069H252.579V220.275C252.579 221.112 252.579 221.447 252.747 221.782C252.914 222.116 252.914 222.116 253.249 222.284C253.416 222.451 253.751 222.451 254.086 222.451C254.253 222.284 254.755 222.284 255.257 222.116Z" fill="#2E4D5D"/>
<path d="M268.481 219.438L271.159 219.773C270.657 221.446 269.987 222.618 268.815 223.455C267.644 224.292 266.137 224.794 264.296 224.794C261.953 224.794 260.279 224.125 258.94 222.618C257.601 221.279 256.931 219.271 256.931 216.76C256.931 214.082 257.601 212.073 258.94 210.567C260.279 209.06 262.12 208.391 264.129 208.391C266.137 208.391 267.978 209.06 269.318 210.567C270.657 212.073 271.326 213.914 271.326 216.592C271.326 216.76 271.326 216.927 271.326 217.262H259.609C259.777 218.936 260.112 220.275 261.116 221.279C262.12 222.283 263.124 222.618 264.463 222.618C265.468 222.618 266.305 222.283 266.974 221.781C267.644 221.279 268.146 220.61 268.481 219.438ZM259.777 215.253H268.481C268.313 213.914 267.978 212.91 267.476 212.24C266.639 211.236 265.468 210.734 264.129 210.734C262.957 210.734 261.953 211.069 261.116 211.906C260.279 212.743 259.944 213.914 259.777 215.253Z" fill="#2E4D5D"/>
<path d="M274.506 224.459V208.893H276.85V211.236C277.519 210.065 278.021 209.395 278.524 209.06C279.026 208.725 279.528 208.558 280.197 208.558C281.034 208.558 282.039 208.893 282.876 209.395L282.039 211.906C281.369 211.571 280.7 211.404 280.03 211.404C279.528 211.404 278.858 211.571 278.524 211.906C278.189 212.241 277.687 212.743 277.519 213.412C277.185 214.416 277.017 215.421 277.017 216.425V224.627H274.506V224.459Z" fill="#2E4D5D"/>
<path d="M284.549 206.047V203.035H287.227V206.047H284.549ZM284.549 224.459V208.893H287.227V224.459H284.549Z" fill="#2E4D5D"/>
<path d="M301.455 222.618C300.45 223.455 299.446 223.957 298.609 224.459C297.772 224.794 296.768 224.962 295.764 224.962C294.09 224.962 292.751 224.459 291.746 223.623C290.742 222.786 290.407 221.781 290.407 220.442C290.407 219.605 290.575 218.936 290.91 218.266C291.244 217.597 291.746 217.095 292.249 216.76C292.751 216.425 293.42 216.09 294.09 215.923C294.592 215.756 295.429 215.588 296.433 215.588C298.609 215.253 300.116 215.086 301.12 214.751C301.12 214.416 301.12 214.082 301.12 214.082C301.12 213.077 300.952 212.241 300.45 211.738C299.781 211.069 298.777 210.901 297.437 210.901C296.266 210.901 295.262 211.069 294.759 211.571C294.257 212.073 293.755 212.743 293.42 213.914L290.91 213.58C291.077 212.408 291.579 211.571 292.081 210.901C292.583 210.232 293.42 209.73 294.425 209.395C295.429 209.06 296.601 208.893 297.94 208.893C299.279 208.893 300.283 209.06 301.12 209.395C301.957 209.73 302.626 210.065 302.961 210.567C303.296 211.069 303.631 211.571 303.798 212.408C303.965 212.91 303.965 213.747 303.965 214.919V218.434C303.965 220.944 303.965 222.451 304.133 223.12C304.3 223.79 304.468 224.459 304.802 224.962H301.957C301.789 223.957 301.622 223.288 301.455 222.618ZM301.287 216.76C300.283 217.095 298.944 217.429 296.935 217.764C295.764 217.932 295.094 218.099 294.592 218.266C294.09 218.434 293.755 218.768 293.588 219.103C293.42 219.438 293.253 219.94 293.253 220.442C293.253 221.112 293.588 221.781 294.09 222.283C294.592 222.786 295.429 222.953 296.433 222.953C297.437 222.953 298.442 222.786 299.111 222.283C299.781 221.781 300.45 221.279 300.785 220.442C301.12 219.773 301.287 218.936 301.287 217.764V216.76Z" fill="#2E4D5D"/>
<path d="M307.982 224.46V202.867H310.661V224.46H307.982Z" fill="#2E4D5D"/>
<path d="M323.382 224.46V202.867H330.747C332.421 202.867 333.76 203.035 334.597 203.202C335.768 203.537 336.94 204.039 337.777 204.709C338.949 205.713 339.786 206.885 340.288 208.391C340.79 209.897 341.125 211.571 341.125 213.58C341.125 215.254 340.957 216.593 340.623 217.932C340.288 219.271 339.786 220.275 339.116 221.112C338.447 221.949 337.944 222.619 337.108 223.121C336.438 223.623 335.601 223.958 334.597 224.125C333.593 224.292 332.421 224.46 331.082 224.46H323.382ZM326.228 221.949H330.914C332.253 221.949 333.425 221.782 334.262 221.614C335.099 221.279 335.768 220.945 336.271 220.443C336.94 219.773 337.442 218.936 337.777 217.764C338.112 216.593 338.279 215.254 338.279 213.58C338.279 211.404 337.944 209.563 337.108 208.391C336.271 207.219 335.434 206.382 334.429 205.88C333.593 205.546 332.421 205.378 330.747 205.378H326.228V221.949Z" fill="#2E4D5D"/>
<path d="M355.519 219.438L358.198 219.773C357.695 221.446 357.026 222.618 355.854 223.455C354.682 224.292 353.176 224.794 351.335 224.794C348.991 224.794 347.318 224.125 345.979 222.618C344.64 221.279 343.97 219.271 343.97 216.76C343.97 214.082 344.64 212.073 345.979 210.567C347.318 209.06 349.159 208.391 351.167 208.391C353.176 208.391 355.017 209.06 356.356 210.567C357.695 212.073 358.365 213.914 358.365 216.592C358.365 216.76 358.365 216.927 358.365 217.262H346.648C346.816 218.936 347.15 220.275 348.155 221.279C349.159 222.283 350.163 222.618 351.502 222.618C352.507 222.618 353.343 222.283 354.013 221.781C354.682 221.279 355.185 220.61 355.519 219.438ZM346.816 215.253H355.519C355.352 213.914 355.017 212.91 354.515 212.24C353.678 211.236 352.507 210.734 351.167 210.734C349.996 210.734 348.991 211.069 348.155 211.906C347.318 212.743 346.983 213.914 346.816 215.253Z" fill="#2E4D5D"/>
<path d="M360.541 219.94L363.219 219.605C363.387 220.61 363.722 221.447 364.391 221.949C365.061 222.451 366.065 222.786 367.237 222.786C368.408 222.786 369.413 222.618 369.915 222.116C370.417 221.614 370.752 221.112 370.752 220.442C370.752 219.773 370.417 219.438 369.915 219.103C369.58 218.936 368.576 218.601 367.237 218.266C365.228 217.764 363.889 217.429 363.219 216.927C362.55 216.592 361.88 216.09 361.546 215.421C361.211 214.751 361.043 214.082 361.043 213.245C361.043 212.575 361.211 211.906 361.546 211.236C361.88 210.567 362.215 210.232 362.885 209.73C363.219 209.395 363.889 209.228 364.559 208.893C365.228 208.558 366.065 208.558 366.902 208.558C368.074 208.558 369.245 208.725 370.082 209.06C371.086 209.395 371.756 209.897 372.091 210.567C372.425 211.236 372.76 211.906 372.928 212.91L370.417 213.245C370.249 212.408 369.915 211.738 369.413 211.404C368.91 210.901 368.074 210.734 367.069 210.734C365.898 210.734 365.061 210.901 364.391 211.404C363.722 211.906 363.554 212.241 363.554 212.743C363.554 213.077 363.722 213.412 363.889 213.747C364.056 214.082 364.391 214.249 364.893 214.416C365.228 214.584 365.898 214.751 367.237 215.086C369.078 215.588 370.417 215.923 371.086 216.258C371.756 216.592 372.425 217.095 372.76 217.597C373.095 218.099 373.43 218.936 373.43 219.94C373.43 220.777 373.095 221.614 372.593 222.451C372.091 223.288 371.254 223.79 370.417 224.292C369.58 224.794 368.408 224.962 367.069 224.962C365.061 224.962 363.554 224.459 362.383 223.623C361.546 222.786 360.876 221.447 360.541 219.94Z" fill="#2E4D5D"/>
<path d="M376.609 206.047V203.035H379.288V206.047H376.609ZM376.609 224.459V208.893H379.288V224.459H376.609Z" fill="#2E4D5D"/>
<path d="M382.803 225.798L385.314 226.133C385.481 226.97 385.648 227.472 386.15 227.807C386.82 228.309 387.657 228.477 388.829 228.477C390 228.477 391.005 228.309 391.674 227.807C392.344 227.305 392.846 226.635 393.013 225.798C393.18 225.296 393.18 224.125 393.18 222.451C392.009 223.79 390.502 224.459 388.829 224.459C386.653 224.459 384.979 223.622 383.807 222.116C382.635 220.61 381.966 218.768 381.966 216.592C381.966 215.086 382.301 213.747 382.803 212.408C383.305 211.069 384.142 210.232 385.146 209.562C386.15 208.893 387.322 208.558 388.829 208.558C390.67 208.558 392.176 209.228 393.348 210.734V208.893H395.859V222.451C395.859 224.962 395.691 226.635 395.189 227.64C394.687 228.644 393.85 229.481 392.846 229.983C391.841 230.653 390.502 230.82 388.829 230.82C386.987 230.82 385.481 230.318 384.309 229.481C383.138 228.644 382.803 227.472 382.803 225.798ZM385.146 216.425C385.146 218.434 385.481 219.94 386.318 220.944C387.155 221.949 388.159 222.283 389.331 222.283C390.502 222.283 391.507 221.781 392.344 220.944C393.18 220.107 393.515 218.601 393.515 216.592C393.515 214.751 393.013 213.245 392.176 212.241C391.339 211.236 390.335 210.734 389.163 210.734C387.992 210.734 386.987 211.236 386.15 212.241C385.314 213.245 385.146 214.584 385.146 216.425Z" fill="#2E4D5D"/>
<path d="M400.043 224.459V208.893H402.386V211.069C403.558 209.395 405.232 208.558 407.408 208.558C408.412 208.558 409.249 208.725 410.086 209.06C410.923 209.395 411.425 209.897 411.927 210.399C412.429 210.901 412.597 211.571 412.764 212.408C412.931 212.91 412.931 213.747 412.931 214.919V224.459H410.253V214.919C410.253 213.914 410.086 213.077 409.918 212.575C409.751 212.073 409.416 211.571 408.747 211.236C408.077 210.901 407.575 210.734 406.906 210.734C405.734 210.734 404.73 211.069 404.06 211.738C403.391 212.408 402.888 213.747 402.888 215.756V224.292H400.043V224.459Z" fill="#2E4D5D"/>
<path d="M219.103 262.121L224.292 261.451C224.459 264.799 225.128 266.975 226.133 268.146C227.137 269.318 228.811 269.987 230.652 269.987C232.158 269.987 233.33 269.653 234.334 268.983C235.339 268.314 236.008 267.477 236.51 266.305C237.013 265.133 237.18 263.46 237.18 260.949V231.155H242.871V260.614C242.871 264.296 242.369 266.975 241.532 268.983C240.695 270.992 239.356 272.498 237.347 273.502C235.339 274.507 233.163 275.009 230.652 275.009C226.802 275.009 223.957 273.837 221.948 271.661C219.94 269.485 219.103 266.305 219.103 262.121Z" fill="#3F697F"/>
<path d="M247.391 274.339L263.962 231.155H270.155L287.73 274.339H281.202L276.181 261.284H258.103L253.417 274.339H247.391ZM259.944 256.597H274.507L269.987 244.713C268.648 241.03 267.644 238.185 266.975 235.842C266.472 238.687 265.635 241.365 264.631 244.043L259.944 256.597Z" fill="#3F697F"/>
<path d="M300.283 274.339L283.545 231.155H289.738L300.953 262.455C301.789 264.966 302.626 267.309 303.296 269.485C303.965 267.142 304.802 264.799 305.639 262.455L317.356 231.155H323.214L306.309 274.339H300.283Z" fill="#3F697F"/>
<path d="M318.863 274.339L335.434 231.155H341.627L359.202 274.339H352.674L347.652 261.284H329.743L325.056 274.339H318.863ZM331.249 256.597H345.811L341.292 244.713C339.953 241.03 338.949 238.185 338.279 235.842C337.777 238.687 336.94 241.365 335.936 244.043L331.249 256.597Z" fill="#3F697F"/>
<path d="M159.515 114.154V97.4163H162.862L166.879 109.3C167.214 110.472 167.549 111.309 167.716 111.811C167.884 111.142 168.218 110.305 168.553 109.133L172.57 97.4163H175.583V114.154H173.407V100.094L168.553 114.154H166.545L161.69 99.927V114.154H159.515Z" fill="#5085A1"/>
<path d="M186.798 112.816C185.961 113.485 185.292 113.987 184.622 114.155C183.953 114.49 183.116 114.49 182.279 114.49C180.94 114.49 179.936 114.155 179.266 113.485C178.596 112.816 178.262 111.979 178.262 110.975C178.262 110.305 178.429 109.803 178.596 109.301C178.931 108.799 179.266 108.464 179.601 108.129C180.103 107.794 180.605 107.627 181.107 107.46C181.442 107.292 182.112 107.292 182.948 107.125C184.622 106.957 185.794 106.623 186.631 106.455C186.631 106.12 186.631 105.953 186.631 105.953C186.631 105.116 186.463 104.447 186.129 104.112C185.627 103.61 184.79 103.442 183.785 103.442C182.781 103.442 182.112 103.61 181.609 103.945C181.107 104.279 180.772 104.949 180.605 105.786L178.596 105.451C178.764 104.614 179.099 103.945 179.433 103.442C179.768 102.94 180.438 102.438 181.275 102.271C182.112 102.103 182.948 101.769 183.953 101.769C184.957 101.769 185.794 101.936 186.463 102.103C187.133 102.271 187.635 102.605 187.97 103.108C188.305 103.61 188.472 103.945 188.639 104.447C188.639 104.781 188.807 105.451 188.807 106.288V108.966C188.807 110.807 188.807 112.146 188.974 112.648C189.142 113.151 189.309 113.653 189.476 114.155H187.3C186.966 113.82 186.798 113.318 186.798 112.816ZM186.631 108.129C185.961 108.464 184.79 108.631 183.283 108.966C182.446 109.133 181.777 109.301 181.442 109.301C181.107 109.301 180.772 109.636 180.605 109.97C180.438 110.305 180.27 110.64 180.27 110.975C180.27 111.477 180.438 111.979 180.94 112.314C181.275 112.648 181.944 112.816 182.781 112.816C183.618 112.816 184.287 112.648 184.957 112.314C185.627 111.979 185.961 111.477 186.296 110.807C186.463 110.305 186.631 109.636 186.631 108.799V108.129Z" fill="#5085A1"/>
<path d="M196.339 112.314L196.674 114.155C196.171 114.322 195.502 114.322 195.167 114.322C194.498 114.322 193.828 114.155 193.493 113.987C193.159 113.82 192.824 113.485 192.656 112.983C192.489 112.481 192.322 111.811 192.322 110.472V103.442H190.815V101.769H192.322V98.7557L194.33 97.584V102.103H196.339V103.777H194.33V110.807C194.33 111.477 194.33 111.811 194.498 111.979C194.498 112.146 194.665 112.314 194.832 112.314C195 112.481 195.167 112.481 195.502 112.481C195.669 112.481 196.004 112.481 196.339 112.314Z" fill="#5085A1"/>
<path d="M206.716 110.305L208.892 110.64C208.558 111.811 207.888 112.816 207.051 113.485C206.214 114.155 205.043 114.49 203.536 114.49C201.695 114.49 200.356 113.987 199.352 112.816C198.347 111.644 197.845 110.138 197.845 108.129C197.845 106.12 198.347 104.447 199.352 103.442C200.356 102.438 201.695 101.769 203.369 101.769C205.043 101.769 206.382 102.271 207.386 103.442C208.39 104.614 208.892 106.12 208.892 108.129C208.892 108.296 208.892 108.464 208.892 108.631H199.854C199.854 109.97 200.356 110.975 201.025 111.644C201.695 112.314 202.532 112.648 203.536 112.648C204.373 112.648 204.875 112.481 205.545 111.979C206.214 111.477 206.382 111.142 206.716 110.305ZM200.021 106.957H206.884C206.716 105.953 206.549 105.116 206.047 104.614C205.377 103.777 204.54 103.442 203.536 103.442C202.532 103.442 201.862 103.777 201.193 104.447C200.356 105.116 200.021 105.953 200.021 106.957Z" fill="#5085A1"/>
<path d="M211.403 114.155V102.103H213.244V103.944C213.746 103.107 214.081 102.438 214.583 102.27C214.918 101.936 215.42 101.936 215.922 101.936C216.592 101.936 217.261 102.103 218.098 102.605L217.429 104.446C216.927 104.112 216.424 103.944 215.922 103.944C215.42 103.944 215.085 104.112 214.751 104.279C214.416 104.446 214.081 104.949 213.914 105.451C213.746 106.12 213.579 106.957 213.579 107.794V114.155H211.403Z" fill="#5085A1"/>
<path d="M219.27 99.7596V97.4163H221.279V99.7596H219.27ZM219.27 114.154V102.103H221.279V114.322H219.27V114.154Z" fill="#5085A1"/>
<path d="M232.326 112.816C231.489 113.485 230.819 113.987 230.15 114.155C229.48 114.49 228.643 114.49 227.807 114.49C226.467 114.49 225.463 114.155 224.794 113.485C224.124 112.816 223.789 111.979 223.789 110.975C223.789 110.305 223.957 109.803 224.124 109.301C224.459 108.799 224.794 108.464 225.128 108.129C225.631 107.794 226.133 107.627 226.635 107.46C226.97 107.292 227.639 107.292 228.476 107.125C230.15 106.957 231.322 106.623 232.158 106.455C232.158 106.12 232.158 105.953 232.158 105.953C232.158 105.116 231.991 104.447 231.656 104.112C231.154 103.61 230.317 103.442 229.313 103.442C228.309 103.442 227.639 103.61 227.137 103.945C226.635 104.279 226.3 104.949 226.133 105.786L224.124 105.451C224.292 104.614 224.626 103.945 224.961 103.442C225.296 102.94 225.965 102.438 226.802 102.271C227.639 102.103 228.476 101.769 229.48 101.769C230.485 101.769 231.322 101.936 231.991 102.103C232.661 102.271 233.163 102.605 233.498 103.108C233.832 103.61 234 103.945 234.167 104.447C234.167 104.781 234.334 105.451 234.334 106.288V108.966C234.334 110.807 234.334 112.146 234.502 112.648C234.669 113.151 234.837 113.653 235.004 114.155H232.828C232.493 113.82 232.493 113.318 232.326 112.816ZM232.158 108.129C231.489 108.464 230.317 108.631 228.811 108.966C227.974 109.133 227.304 109.301 226.97 109.301C226.635 109.301 226.3 109.636 226.133 109.97C225.965 110.305 225.798 110.64 225.798 110.975C225.798 111.477 225.965 111.979 226.467 112.314C226.802 112.648 227.472 112.816 228.309 112.816C229.146 112.816 229.815 112.648 230.485 112.314C231.154 111.979 231.489 111.477 231.824 110.807C231.991 110.305 232.158 109.636 232.158 108.799V108.129Z" fill="#5085A1"/>
<path d="M237.515 114.154V97.4163H239.524V114.154H237.515Z" fill="#5085A1"/>
<path d="M159.682 142.275V125.536H165.541C166.88 125.536 167.884 125.536 168.553 125.704C169.558 125.871 170.395 126.373 171.064 126.876C171.901 127.545 172.571 128.549 173.073 129.721C173.575 130.893 173.742 132.232 173.742 133.738C173.742 135.077 173.575 136.082 173.24 137.086C172.905 138.09 172.571 138.927 172.068 139.597C171.566 140.266 171.064 140.768 170.562 141.103C170.06 141.438 169.39 141.773 168.553 141.94C167.716 142.107 166.88 142.275 165.875 142.275H159.682ZM161.858 140.434H165.373C166.545 140.434 167.382 140.266 168.051 140.099C168.721 139.931 169.223 139.597 169.558 139.262C170.06 138.76 170.562 138.09 170.729 137.086C171.064 136.249 171.231 135.077 171.231 133.906C171.231 132.232 170.897 130.725 170.395 129.888C169.892 128.884 169.056 128.382 168.219 128.047C167.549 127.88 166.712 127.712 165.373 127.712H161.858V140.434Z" fill="#5085A1"/>
<path d="M184.622 138.425L186.798 138.759C186.463 139.931 185.794 140.935 184.957 141.605C184.12 142.274 182.948 142.609 181.442 142.609C179.601 142.609 178.262 142.107 177.257 140.935C176.253 139.764 175.751 138.257 175.751 136.249C175.751 134.24 176.253 132.566 177.257 131.562C178.262 130.558 179.601 129.888 181.275 129.888C182.948 129.888 184.287 130.39 185.292 131.562C186.296 132.734 186.798 134.24 186.798 136.249C186.798 136.416 186.798 136.583 186.798 136.751H177.759C177.759 138.09 178.262 139.094 178.931 139.764C179.601 140.433 180.438 140.768 181.442 140.768C182.279 140.768 182.781 140.601 183.45 140.098C184.12 139.596 184.287 139.262 184.622 138.425ZM177.759 135.077H184.622C184.455 134.073 184.287 133.236 183.785 132.734C183.116 131.897 182.279 131.562 181.275 131.562C180.27 131.562 179.601 131.897 178.931 132.566C178.262 133.236 177.927 134.073 177.759 135.077Z" fill="#5085A1"/>
<path d="M188.471 138.759L190.48 138.425C190.647 139.262 190.982 139.931 191.484 140.266C191.986 140.768 192.656 140.935 193.66 140.935C194.665 140.935 195.334 140.768 195.836 140.433C196.338 140.098 196.506 139.596 196.506 139.094C196.506 138.592 196.338 138.257 195.836 137.923C195.501 137.755 194.832 137.588 193.66 137.253C192.154 136.918 191.15 136.583 190.48 136.249C189.978 135.914 189.476 135.579 189.141 135.077C188.806 134.575 188.639 134.073 188.639 133.403C188.639 132.901 188.806 132.399 188.974 131.897C189.141 131.395 189.643 131.06 189.978 130.725C190.313 130.558 190.815 130.223 191.317 130.056C191.819 129.888 192.489 129.888 193.158 129.888C194.162 129.888 194.999 130.056 195.669 130.223C196.338 130.558 196.841 130.892 197.343 131.395C197.845 131.897 197.845 132.566 198.012 133.236L196.004 133.571C195.836 132.901 195.669 132.399 195.167 132.064C194.665 131.729 194.162 131.562 193.326 131.562C192.321 131.562 191.652 131.729 191.317 132.064C190.982 132.399 190.647 132.734 190.647 133.236C190.647 133.571 190.647 133.738 190.982 133.905C191.15 134.073 191.484 134.24 191.819 134.408C191.986 134.408 192.656 134.742 193.66 134.91C195.167 135.244 196.171 135.579 196.673 135.914C197.175 136.081 197.677 136.583 198.012 136.918C198.347 137.253 198.514 137.923 198.514 138.759C198.514 139.429 198.347 140.098 197.845 140.768C197.51 141.438 196.841 141.772 196.171 142.107C195.501 142.442 194.497 142.609 193.66 142.609C192.154 142.609 190.815 142.274 189.978 141.605C189.308 140.935 188.639 140.098 188.471 138.759Z" fill="#5085A1"/>
<path d="M201.026 127.88V125.536H203.034V127.88H201.026ZM201.026 142.275V130.056H203.034V142.275H201.026Z" fill="#5085A1"/>
<path d="M205.879 143.446L207.888 143.781C207.888 144.45 208.223 144.785 208.557 145.12C209.06 145.455 209.729 145.622 210.733 145.622C211.738 145.622 212.407 145.455 212.909 145.12C213.412 144.785 213.746 144.283 213.914 143.446C214.081 142.944 214.081 142.107 214.081 140.768C213.244 141.772 212.073 142.442 210.733 142.442C209.06 142.442 207.721 141.772 206.884 140.601C206.047 139.429 205.545 137.923 205.545 136.249C205.545 135.077 205.712 134.073 206.214 133.068C206.716 132.064 207.218 131.395 208.055 130.725C208.892 130.223 209.729 129.888 210.901 129.888C212.407 129.888 213.579 130.39 214.416 131.562V130.056H216.257V140.601C216.257 142.442 216.09 143.781 215.755 144.618C215.42 145.455 214.751 145.957 213.914 146.459C213.077 146.961 212.073 147.129 210.901 147.129C209.394 147.129 208.223 146.794 207.386 146.124C206.549 145.455 205.879 144.618 205.879 143.446ZM207.553 136.081C207.553 137.755 207.888 138.759 208.557 139.596C209.227 140.433 210.064 140.768 210.901 140.768C211.905 140.768 212.575 140.433 213.244 139.596C213.914 138.759 214.248 137.755 214.248 136.249C214.248 134.742 213.914 133.571 213.244 132.901C212.575 132.064 211.738 131.729 210.901 131.729C210.064 131.729 209.227 132.064 208.557 132.901C207.888 133.738 207.553 134.575 207.553 136.081Z" fill="#5085A1"/>
<path d="M219.27 142.275V130.056H221.111V131.73C221.948 130.391 223.287 129.721 224.961 129.721C225.631 129.721 226.3 129.889 226.97 130.056C227.639 130.391 227.974 130.725 228.309 131.06C228.644 131.395 228.811 132.064 228.978 132.567C228.978 132.901 229.146 133.571 229.146 134.575V142.275H227.137V134.91C227.137 134.073 227.137 133.404 226.97 133.069C226.802 132.734 226.468 132.399 226.133 132.064C225.798 131.897 225.296 131.73 224.626 131.73C223.79 131.73 222.953 132.064 222.283 132.567C221.614 133.069 221.279 134.24 221.279 135.747V142.442H219.27V142.275Z" fill="#5085A1"/>
<path d="M172.236 72.9786L175.416 72.6439C175.583 73.9829 175.918 74.9872 176.42 75.8241C176.922 76.661 177.759 77.3306 178.931 77.8327C180.103 78.3349 181.442 78.5023 182.781 78.5023C184.12 78.5023 185.124 78.3349 186.128 78.0001C187.133 77.6653 187.802 77.1632 188.304 76.4937C188.806 75.8241 188.974 75.1546 188.974 74.3177C188.974 73.4808 188.806 72.8113 188.304 72.3091C187.802 71.6396 187.133 71.3048 185.961 70.8027C185.291 70.4679 183.785 70.1331 181.442 69.631C179.098 69.1288 177.592 68.6267 176.588 68.1246C175.416 67.455 174.412 66.7855 173.909 65.7812C173.24 64.7769 173.073 63.7726 173.073 62.601C173.073 61.2619 173.407 60.0902 174.077 59.0859C174.746 57.9142 175.918 57.0773 177.257 56.5752C178.596 56.073 180.103 55.7383 181.944 55.7383C183.785 55.7383 185.459 56.073 186.798 56.5752C188.304 57.2447 189.309 58.0816 190.145 59.2533C190.982 60.425 191.317 61.764 191.317 63.2705L188.137 63.4379C187.97 61.764 187.467 60.5924 186.463 59.7555C185.459 58.9185 183.952 58.5838 182.111 58.5838C180.103 58.5838 178.596 58.9185 177.759 59.7555C176.755 60.425 176.42 61.4293 176.42 62.4336C176.42 63.2705 176.755 64.1074 177.424 64.6095C178.094 65.1117 179.768 65.7812 182.446 66.4507C185.124 67.1203 186.965 67.6224 187.97 68.1246C189.476 68.7941 190.48 69.631 191.15 70.6353C191.819 71.6396 192.154 72.8113 192.154 74.1503C192.154 75.4894 191.819 76.8284 190.982 78.0001C190.145 79.1718 189.141 80.1761 187.635 80.8456C186.128 81.5151 184.622 81.8499 182.781 81.8499C180.437 81.8499 178.596 81.5151 177.09 80.8456C175.583 80.1761 174.412 79.1718 173.407 77.8327C172.738 76.1589 172.236 74.6525 172.236 72.9786Z" fill="#3F697F"/>
<path d="M215.922 78.3348C217.429 79.3391 218.935 80.176 220.274 80.6782L219.27 83.0215C217.429 82.352 215.588 81.3477 213.914 80.0086C212.073 81.0129 210.064 81.5151 207.721 81.5151C205.377 81.5151 203.369 81.0129 201.527 79.8413C199.686 78.6696 198.18 77.1631 197.176 75.1546C196.171 73.146 195.669 70.97 195.669 68.4593C195.669 65.9485 196.171 63.7726 197.176 61.5966C198.18 59.4206 199.686 58.0816 201.527 56.9099C203.369 55.9056 205.545 55.2361 207.721 55.2361C210.064 55.2361 212.073 55.7382 214.081 56.9099C215.922 58.0816 217.429 59.588 218.266 61.5966C219.27 63.6052 219.772 65.7812 219.772 68.2919C219.772 70.3005 219.437 72.3091 218.768 73.8155C218.098 75.6567 217.261 77.1631 215.922 78.3348ZM208.557 74.1503C210.399 74.6524 212.073 75.4893 213.244 76.4936C215.253 74.6524 216.257 71.9743 216.257 68.4593C216.257 66.4507 215.922 64.6095 215.253 63.103C214.583 61.5966 213.579 60.4249 212.24 59.588C210.901 58.7511 209.394 58.249 207.721 58.249C205.21 58.249 203.201 59.0859 201.527 60.7597C199.854 62.4335 199.017 64.9442 199.017 68.2919C199.017 71.6395 199.854 74.1503 201.527 75.8241C203.201 77.4979 205.21 78.5022 207.721 78.5022C208.892 78.5022 210.064 78.3348 211.068 77.8327C210.064 77.1631 208.892 76.661 207.721 76.3262L208.557 74.1503Z" fill="#3F697F"/>
<path d="M224.124 81.0127V55.9054H227.472V78.1672H239.858V81.1801H224.124V81.0127Z" fill="#3F697F"/>
<path d="M434.022 215.421V212.743H443.897V221.446C442.391 222.618 440.885 223.622 439.211 224.125C437.537 224.627 436.03 224.961 434.189 224.961C431.846 224.961 429.837 224.459 427.996 223.455C426.155 222.451 424.649 221.112 423.812 219.27C422.807 217.429 422.305 215.421 422.305 213.077C422.305 210.734 422.807 208.725 423.812 206.717C424.816 204.708 426.155 203.369 427.829 202.365C429.67 201.361 431.679 200.858 434.022 200.858C435.696 200.858 437.202 201.193 438.541 201.695C439.88 202.198 440.885 203.034 441.721 204.039C442.558 205.043 443.061 206.215 443.563 207.889L440.717 208.725C440.382 207.554 439.88 206.549 439.378 205.88C438.876 205.21 438.039 204.708 437.202 204.206C436.198 203.871 435.194 203.537 434.022 203.537C432.683 203.537 431.344 203.704 430.34 204.206C429.335 204.708 428.498 205.21 427.829 205.88C427.159 206.549 426.657 207.386 426.322 208.223C425.653 209.73 425.485 211.236 425.485 212.91C425.485 214.919 425.82 216.76 426.49 218.099C427.159 219.438 428.164 220.61 429.67 221.279C431.176 221.949 432.515 222.283 434.022 222.283C435.361 222.283 436.7 221.949 437.872 221.446C439.043 220.944 440.048 220.442 440.717 219.773V215.421H434.022Z" fill="#3F697F"/>
<path d="M448.082 204.541V201.193H450.927V204.541H448.082ZM448.082 224.627V207.721H450.927V224.627H448.082Z" fill="#3F697F"/>
<path d="M461.473 221.949L461.808 224.46C460.971 224.627 460.302 224.794 459.632 224.794C458.628 224.794 457.791 224.627 457.289 224.292C456.787 223.957 456.285 223.455 456.117 222.953C455.95 222.451 455.782 221.279 455.782 219.605V209.897H453.607V207.721H455.782V203.537L458.628 201.863V207.721H461.473V209.897H458.628V219.773C458.628 220.61 458.628 221.112 458.795 221.279C458.963 221.447 459.13 221.781 459.297 221.781C459.465 221.949 459.8 221.949 460.302 221.949C460.637 222.116 460.971 222.116 461.473 221.949Z" fill="#3F697F"/>
<path d="M422.305 185.627V165.206H430.005C431.511 165.206 432.85 165.374 433.687 165.876C434.691 166.21 435.361 166.88 435.863 167.717C436.365 168.554 436.7 169.391 436.7 170.395C436.7 171.232 436.533 172.069 436.031 172.906C435.528 173.743 434.859 174.245 433.855 174.747C435.026 175.082 436.03 175.751 436.7 176.588C437.37 177.425 437.704 178.429 437.704 179.601C437.704 180.605 437.537 181.442 437.035 182.279C436.7 183.116 436.198 183.786 435.528 184.12C434.859 184.623 434.189 184.957 433.352 185.125C432.515 185.292 431.344 185.459 430.005 185.459H422.305V185.627ZM424.983 173.743H429.335C430.507 173.743 431.344 173.743 431.846 173.575C432.515 173.408 433.018 173.073 433.352 172.571C433.687 172.069 433.855 171.567 433.855 170.73C433.855 170.06 433.687 169.391 433.352 168.889C433.018 168.386 432.515 168.052 432.013 167.884C431.344 167.717 430.34 167.55 428.833 167.55H424.816V173.743H424.983ZM424.983 183.283H430.005C430.842 183.283 431.511 183.283 431.846 183.116C432.515 182.949 433.018 182.781 433.352 182.614C433.687 182.279 434.189 181.944 434.357 181.442C434.524 180.94 434.691 180.438 434.691 179.768C434.691 178.932 434.524 178.429 434.189 177.76C433.855 177.258 433.185 176.756 432.515 176.588C431.846 176.421 430.842 176.253 429.503 176.253H424.816V183.283H424.983Z" fill="#5085A1"/>
<path d="M450.761 183.786C449.756 184.622 448.92 185.125 448.083 185.459C447.246 185.794 446.241 185.961 445.237 185.961C443.563 185.961 442.392 185.627 441.555 184.79C440.718 183.953 440.216 182.949 440.216 181.777C440.216 181.107 440.383 180.438 440.718 179.768C441.053 179.099 441.555 178.764 442.057 178.262C442.559 177.927 443.229 177.592 443.898 177.425C444.4 177.258 445.07 177.09 446.074 177.09C448.083 176.923 449.589 176.588 450.593 176.253C450.593 175.919 450.593 175.751 450.593 175.584C450.593 174.579 450.426 173.91 449.924 173.408C449.254 172.906 448.25 172.571 447.078 172.571C445.907 172.571 445.07 172.738 444.4 173.24C443.898 173.575 443.396 174.412 443.229 175.416L440.718 175.082C440.885 174.077 441.387 173.24 441.89 172.571C442.392 171.901 443.061 171.399 444.065 171.064C445.07 170.73 446.074 170.562 447.413 170.562C448.752 170.562 449.756 170.73 450.426 171.064C451.263 171.399 451.765 171.734 452.1 172.236C452.435 172.738 452.769 173.24 452.937 173.91C452.937 174.412 453.104 175.082 453.104 176.253V179.601C453.104 181.944 453.104 183.451 453.271 183.953C453.439 184.622 453.606 185.125 453.941 185.794H451.263C451.096 185.125 450.928 184.455 450.761 183.786ZM450.593 178.262C449.756 178.597 448.25 178.931 446.576 179.266C445.572 179.434 444.735 179.601 444.4 179.768C443.898 179.936 443.563 180.27 443.396 180.605C443.229 180.94 443.061 181.442 443.061 181.777C443.061 182.446 443.396 182.949 443.898 183.451C444.4 183.953 445.07 184.12 446.074 184.12C447.078 184.12 447.915 183.953 448.585 183.451C449.254 182.949 449.924 182.446 450.259 181.777C450.593 181.275 450.593 180.438 450.593 179.266V178.262Z" fill="#5085A1"/>
<path d="M455.95 181.275L458.46 180.94C458.628 181.944 458.963 182.614 459.632 183.283C460.302 183.786 461.139 184.12 462.31 184.12C463.482 184.12 464.319 183.953 464.821 183.451C465.323 182.949 465.658 182.447 465.658 181.777C465.658 181.275 465.49 180.773 464.988 180.438C464.654 180.271 463.817 179.936 462.478 179.601C460.636 179.099 459.297 178.764 458.628 178.429C457.958 178.095 457.456 177.592 456.954 177.09C456.619 176.421 456.452 175.751 456.452 175.082C456.452 174.412 456.619 173.743 456.954 173.241C457.289 172.738 457.623 172.236 458.126 171.901C458.46 171.567 459.13 171.399 459.799 171.232C460.469 171.065 461.139 170.897 461.975 170.897C463.147 170.897 464.151 171.065 464.988 171.399C465.825 171.734 466.495 172.236 466.997 172.738C467.332 173.241 467.666 174.077 467.834 175.082L465.323 175.416C465.156 174.58 464.821 174.077 464.319 173.575C463.817 173.073 462.98 172.906 461.975 172.906C460.804 172.906 459.967 173.073 459.465 173.408C458.963 173.743 458.795 174.245 458.795 174.747C458.795 175.082 458.963 175.416 459.13 175.584C459.297 175.919 459.632 176.086 460.134 176.253C460.302 176.421 461.139 176.588 462.31 176.923C464.151 177.425 465.323 177.76 465.993 178.095C466.662 178.429 467.164 178.764 467.666 179.434C468.001 179.936 468.336 180.773 468.336 181.61C468.336 182.447 468.169 183.283 467.666 183.953C467.164 184.622 466.495 185.292 465.49 185.627C464.486 185.962 463.482 186.296 462.31 186.296C460.469 186.296 458.963 185.962 457.958 185.125C456.954 183.953 456.284 182.781 455.95 181.275Z" fill="#5085A1"/>
<path d="M471.348 185.627V165.206H473.859V172.571C475.03 171.232 476.537 170.562 478.211 170.562C479.382 170.562 480.219 170.73 481.056 171.232C481.893 171.734 482.395 172.236 482.73 173.073C483.065 173.91 483.232 174.914 483.232 176.421V185.794H480.721V176.421C480.721 175.249 480.387 174.245 479.885 173.743C479.382 173.241 478.545 172.906 477.541 172.906C476.872 172.906 476.035 173.073 475.365 173.408C474.696 173.743 474.194 174.245 474.026 174.914C473.859 175.584 473.691 176.421 473.691 177.592V185.627H471.348Z" fill="#5085A1"/>
<path d="M514.365 221.781H489.258V218.434H511.519V206.047H514.532V221.781H514.365Z" fill="#6D9DB7"/>
<path d="M508.507 189.979L508.842 186.798C510.683 187.301 512.19 188.305 513.194 189.644C514.198 190.983 514.701 192.824 514.701 194.833C514.701 197.511 513.864 199.687 512.19 201.193C510.516 202.7 508.173 203.537 505.327 203.537C502.314 203.537 499.804 202.7 498.13 201.193C496.456 199.687 495.619 197.511 495.619 195C495.619 192.489 496.456 190.648 498.13 188.974C499.804 187.468 502.147 186.631 505.16 186.631C505.327 186.631 505.662 186.631 505.997 186.631V200.189C508.005 200.022 509.512 199.52 510.516 198.515C511.52 197.511 512.19 196.172 512.19 194.665C512.19 193.494 511.855 192.489 511.353 191.82C510.683 191.15 509.846 190.481 508.507 189.979ZM503.486 200.189V189.979C501.98 190.146 500.808 190.481 499.971 191.15C498.799 192.155 498.13 193.494 498.13 195C498.13 196.339 498.632 197.678 499.636 198.515C500.641 199.52 501.98 200.022 503.486 200.189Z" fill="#6D9DB7"/>
<path d="M512.189 171.065C513.193 172.236 513.863 173.241 514.198 174.412C514.532 175.417 514.867 176.588 514.867 177.76C514.867 179.768 514.365 181.275 513.361 182.447C512.356 183.451 511.185 184.12 509.678 184.12C508.841 184.12 508.004 183.953 507.168 183.451C506.498 183.116 505.828 182.447 505.326 181.777C504.824 181.108 504.489 180.438 504.322 179.601C504.155 178.932 503.987 178.095 503.82 176.923C503.485 174.412 503.15 172.571 502.816 171.399C502.313 171.399 502.146 171.399 501.979 171.399C500.64 171.399 499.803 171.734 499.301 172.236C498.631 173.073 498.296 174.245 498.296 175.751C498.296 177.258 498.631 178.262 499.133 178.932C499.635 179.601 500.472 180.103 501.811 180.438L501.477 183.451C500.137 183.116 499.133 182.781 498.296 182.112C497.459 181.442 496.957 180.605 496.455 179.434C495.953 178.262 495.786 176.923 495.786 175.249C495.786 173.743 495.953 172.404 496.288 171.399C496.622 170.395 497.125 169.726 497.627 169.223C498.129 168.721 498.966 168.386 499.803 168.219C500.305 168.052 501.309 168.052 502.648 168.052H506.833C509.678 168.052 511.519 168.052 512.356 167.884C513.193 167.717 513.863 167.55 514.532 167.047V170.228C513.695 170.73 513.026 170.897 512.189 171.065ZM505.159 171.232C505.661 172.404 505.996 174.077 506.331 176.253C506.498 177.592 506.665 178.429 507 178.932C507.335 179.434 507.502 179.936 508.004 180.103C508.507 180.438 509.009 180.605 509.511 180.605C510.348 180.605 511.017 180.271 511.519 179.601C512.022 178.932 512.356 178.095 512.356 176.923C512.356 175.751 512.022 174.747 511.519 173.743C511.017 172.738 510.348 172.069 509.343 171.734C508.674 171.399 507.67 171.232 506.331 171.232H505.159Z" fill="#6D9DB7"/>
<path d="M514.365 163.365H489.258V160.352H503.652L496.288 152.987V148.97L502.983 156L514.365 148.301V152.151L504.992 158.176L507.167 160.352H514.365V163.365Z" fill="#6D9DB7"/>
<path d="M505.493 117.67L506.33 114.322C509.009 114.992 511.185 116.331 512.524 118.172C514.03 120.013 514.7 122.189 514.7 124.867C514.7 127.545 514.197 129.721 513.026 131.562C511.854 133.236 510.348 134.575 508.172 135.412C505.996 136.249 503.82 136.751 501.476 136.751C498.798 136.751 496.622 136.249 494.614 135.245C492.605 134.241 491.099 132.902 490.094 130.893C489.09 129.052 488.588 127.043 488.588 124.867C488.588 122.356 489.257 120.181 490.429 118.507C491.601 116.833 493.442 115.661 495.785 114.992L496.622 118.339C494.781 118.841 493.442 119.846 492.605 120.85C491.768 121.854 491.433 123.361 491.433 125.035C491.433 127.043 491.936 128.55 492.772 129.889C493.777 131.228 494.948 132.065 496.455 132.567C497.961 133.069 499.635 133.404 501.309 133.404C503.485 133.404 505.326 133.069 506.833 132.399C508.506 131.73 509.678 130.726 510.348 129.554C511.017 128.382 511.519 126.876 511.519 125.202C511.519 123.361 511.017 121.687 509.845 120.515C509.176 119.009 507.669 118.172 505.493 117.67Z" fill="#6D9DB7"/>
<path d="M512.189 98.7556C513.193 99.9273 513.863 100.932 514.198 102.103C514.532 103.108 514.867 104.279 514.867 105.451C514.867 107.459 514.365 108.966 513.361 110.138C512.356 111.142 511.185 111.811 509.678 111.811C508.841 111.811 508.004 111.644 507.168 111.142C506.498 110.807 505.828 110.138 505.326 109.468C504.824 108.799 504.489 108.129 504.322 107.292C504.155 106.623 503.987 105.786 503.82 104.614C503.485 102.103 503.15 100.262 502.816 99.0903C502.313 99.0903 502.146 99.0903 501.979 99.0903C500.64 99.0903 499.803 99.4251 499.301 99.9273C498.631 100.764 498.296 101.936 498.296 103.442C498.296 104.949 498.631 105.953 499.133 106.623C499.635 107.292 500.472 107.794 501.811 108.129L501.477 111.142C500.137 110.807 499.133 110.472 498.296 109.803C497.459 109.133 496.957 108.296 496.455 107.125C495.953 105.953 495.786 104.614 495.786 102.94C495.786 101.434 495.953 100.095 496.288 99.0903C496.622 98.086 497.125 97.4165 497.627 96.9144C498.129 96.4122 498.966 96.0775 499.803 95.9101C500.305 95.7427 501.309 95.7427 502.648 95.7427H506.833C509.678 95.7427 511.519 95.7427 512.356 95.5753C513.193 95.4079 513.863 95.2405 514.532 94.7384V97.9187C513.695 98.4208 513.026 98.7556 512.189 98.7556ZM505.159 99.0903C505.661 100.262 505.996 101.936 506.331 104.112C506.498 105.451 506.665 106.288 507 106.79C507.168 107.292 507.502 107.794 508.004 107.962C508.507 108.296 509.009 108.464 509.511 108.464C510.348 108.464 511.017 108.129 511.519 107.459C512.022 106.79 512.356 105.953 512.356 104.781C512.356 103.61 512.022 102.605 511.519 101.601C511.017 100.597 510.348 99.9273 509.343 99.5925C508.674 99.2577 507.67 99.0903 506.331 99.0903H505.159Z" fill="#6D9DB7"/>
<path d="M514.366 91.0562H496.121V88.2107H498.632C496.623 86.8716 495.619 84.8631 495.619 82.3523C495.619 81.1806 495.786 80.1764 496.289 79.3394C496.623 78.5025 497.125 77.6656 497.795 77.3309C498.465 76.9961 499.134 76.4939 500.138 76.3266C500.64 76.1592 501.645 76.1592 503.151 76.1592H514.366V79.1721H503.319C501.98 79.1721 501.143 79.3394 500.473 79.5068C499.804 79.6742 499.301 80.1763 498.967 80.8459C498.632 81.5154 498.465 82.1849 498.465 83.0218C498.465 84.3609 498.799 85.5326 499.636 86.3695C500.473 87.3738 501.98 87.8759 504.323 87.8759H514.198V91.0562H514.366Z" fill="#6D9DB7"/>
<path d="M512.189 59.7556C513.193 60.9273 513.863 61.9315 514.198 63.1032C514.532 64.1075 514.867 65.2792 514.867 66.4509C514.867 68.4594 514.365 69.9659 513.361 71.1376C512.356 72.1418 511.185 72.8114 509.678 72.8114C508.841 72.8114 508.004 72.644 507.168 72.1418C506.498 71.8071 505.828 71.1376 505.326 70.468C504.824 69.7985 504.489 69.129 504.322 68.2921C504.155 67.6225 503.987 66.7856 503.82 65.6139C503.485 63.1032 503.15 61.262 502.816 60.0903C502.313 60.0903 502.146 60.0903 501.979 60.0903C500.64 60.0903 499.803 60.4251 499.301 60.9273C498.631 61.7642 498.296 62.9358 498.296 64.4423C498.296 65.9487 498.631 66.953 499.133 67.6225C499.635 68.2921 500.472 68.7942 501.811 69.129L501.477 72.1418C500.137 71.8071 499.133 71.4723 498.296 70.8028C497.459 70.1333 496.957 69.2964 496.455 68.1247C495.953 66.953 495.786 65.6139 495.786 63.9401C495.786 62.4337 495.953 61.0946 496.288 60.0903C496.622 59.086 497.125 58.4165 497.627 57.9144C498.129 57.4122 498.966 57.0775 499.803 56.9101C500.305 56.7427 501.309 56.7427 502.648 56.7427H506.833C509.678 56.7427 511.519 56.7427 512.356 56.5753C513.193 56.4079 513.863 56.2405 514.532 55.7384V58.9187C513.695 59.4208 513.026 59.5882 512.189 59.7556ZM505.159 59.923C505.661 61.0946 505.996 62.7685 506.331 64.9444C506.498 66.2835 506.665 67.1204 507 67.6225C507.335 68.1247 507.502 68.6268 508.004 68.7942C508.507 69.129 509.009 69.2964 509.511 69.2964C510.348 69.2964 511.017 68.9616 511.519 68.2921C512.022 67.6225 512.356 66.7856 512.356 65.6139C512.356 64.4423 512.022 63.438 511.519 62.4337C511.017 61.4294 510.348 60.7599 509.343 60.4251C508.674 60.0903 507.67 59.923 506.331 59.923H505.159Z" fill="#6D9DB7"/>
<path d="M514.365 52.0561H496.12V49.2106H498.966C497.627 48.5411 496.79 47.8716 496.455 47.202C496.12 46.5325 495.786 45.863 495.786 45.1934C495.786 44.1892 496.12 43.0175 496.79 42.0132L499.635 43.0175C499.133 43.8544 498.966 44.5239 498.966 45.3608C498.966 46.0304 499.133 46.6999 499.635 47.202C499.97 47.7042 500.64 48.2063 501.309 48.3737C502.481 48.7085 503.653 48.8759 504.992 48.8759H514.532V52.0561H514.365Z" fill="#6D9DB7"/>
<path d="M521.395 40.5066L518.55 40.8413C518.717 40.1718 518.884 39.5023 518.884 39.0001C518.884 38.3306 518.717 37.8285 518.55 37.3263C518.382 36.8242 518.047 36.6568 517.545 36.322C517.211 36.1546 516.541 35.8199 515.202 35.3177C515.035 35.3177 514.7 35.1503 514.365 34.983L496.12 41.8456V38.498L506.665 34.6482C508.005 34.1461 509.344 33.6439 510.85 33.3091C509.511 32.9744 508.005 32.4722 506.665 31.9701L496.12 28.1203V25.1074L514.7 31.9701C516.708 32.6396 518.047 33.3091 518.884 33.6439C519.889 34.1461 520.726 34.8156 521.06 35.4851C521.562 36.1546 521.73 36.9916 521.73 37.9958C521.73 39.0001 521.562 39.6697 521.395 40.5066Z" fill="#6D9DB7"/>
<path d="M366.232 264.129V239.022H377.447C379.623 239.022 381.464 239.189 382.636 239.691C383.807 240.193 384.811 240.863 385.481 242.035C386.151 243.206 386.485 244.378 386.485 245.884C386.485 247.726 385.983 249.232 384.811 250.404C383.64 251.575 381.799 252.412 379.455 252.747C380.292 253.249 380.962 253.584 381.464 253.919C382.468 254.756 383.305 255.927 384.309 257.266L388.661 264.129H384.477L381.129 258.94C380.125 257.434 379.288 256.262 378.786 255.425C378.116 254.588 377.614 254.086 377.112 253.751C376.61 253.417 376.108 253.249 375.605 253.082C375.271 253.082 374.601 252.915 373.764 252.915H369.914V264.129H366.232ZM369.58 250.069H376.777C378.284 250.069 379.455 249.902 380.292 249.567C381.129 249.232 381.799 248.73 382.301 248.06C382.803 247.391 382.97 246.554 382.97 245.884C382.97 244.713 382.468 243.708 381.631 242.872C380.794 242.035 379.455 241.7 377.614 241.7H369.58V250.069Z" fill="#3F697F"/>
<path d="M403.558 258.271L406.739 258.605C406.237 260.447 405.232 261.953 403.893 262.957C402.554 263.962 400.713 264.464 398.704 264.464C396.026 264.464 393.85 263.627 392.344 261.953C390.837 260.279 390 257.936 390 255.09C390 252.077 390.837 249.567 392.344 247.893C393.85 246.219 396.026 245.382 398.537 245.382C401.048 245.382 402.889 246.219 404.563 247.893C406.069 249.567 406.906 251.91 406.906 254.923C406.906 255.09 406.906 255.425 406.906 255.76H393.348C393.516 257.768 394.018 259.275 395.022 260.279C396.026 261.283 397.365 261.953 398.872 261.953C400.043 261.953 401.048 261.618 401.717 261.116C402.554 260.614 403.224 259.61 403.558 258.271ZM393.516 253.249H403.726C403.558 251.743 403.224 250.571 402.554 249.734C401.55 248.562 400.211 247.893 398.704 247.893C397.365 247.893 396.026 248.395 395.189 249.399C394.185 250.404 393.516 251.743 393.516 253.249Z" fill="#3F697F"/>
<path d="M422.639 261.953C421.467 262.957 420.463 263.627 419.291 263.962C418.287 264.296 417.115 264.631 415.944 264.631C413.935 264.631 412.429 264.129 411.257 263.125C410.253 262.12 409.583 260.949 409.583 259.442C409.583 258.605 409.751 257.768 410.253 256.932C410.588 256.262 411.257 255.592 411.927 255.09C412.596 254.588 413.266 254.253 414.103 254.086C414.772 253.919 415.609 253.751 416.781 253.584C419.291 253.249 421.133 252.914 422.304 252.58C422.304 252.077 422.304 251.91 422.304 251.743C422.304 250.404 421.97 249.567 421.467 249.065C420.63 248.395 419.459 248.06 417.952 248.06C416.446 248.06 415.442 248.395 414.772 248.897C414.103 249.399 413.6 250.236 413.266 251.575L410.253 251.241C410.588 249.902 410.922 248.897 411.592 248.06C412.261 247.223 413.098 246.721 414.27 246.219C415.442 245.717 416.781 245.55 418.455 245.55C419.961 245.55 421.3 245.717 422.304 246.052C423.309 246.386 423.978 246.889 424.48 247.391C424.982 247.893 425.317 248.73 425.485 249.567C425.652 250.069 425.652 251.073 425.652 252.412V256.597C425.652 259.442 425.652 261.283 425.819 262.12C425.987 262.957 426.154 263.627 426.656 264.296H423.476C422.974 263.459 422.639 262.79 422.639 261.953ZM422.304 255.09C421.133 255.592 419.459 255.927 417.283 256.262C415.944 256.429 415.107 256.597 414.605 256.932C414.103 257.266 413.6 257.434 413.433 257.936C413.098 258.438 412.931 258.94 412.931 259.442C412.931 260.279 413.266 260.949 413.935 261.451C414.605 261.953 415.442 262.288 416.613 262.288C417.785 262.288 418.789 261.953 419.794 261.451C420.798 260.949 421.467 260.279 421.802 259.275C422.137 258.605 422.304 257.601 422.304 256.262V255.09Z" fill="#3F697F"/>
<path d="M430.172 264.129V239.022H433.185V264.129H430.172Z" fill="#3F697F"/>
<path d="M438.038 264.129V245.884H440.884V248.395C441.386 247.558 442.223 246.721 443.227 246.219C444.231 245.717 445.236 245.382 446.407 245.382C447.746 245.382 448.918 245.717 449.755 246.219C450.592 246.721 451.261 247.558 451.596 248.562C453.103 246.386 454.944 245.382 457.287 245.382C459.128 245.382 460.468 245.884 461.472 246.889C462.476 247.893 462.978 249.399 462.978 251.575V264.129H459.965V252.747C459.965 251.575 459.798 250.571 459.631 250.069C459.463 249.567 459.128 249.065 458.459 248.73C457.789 248.395 457.287 248.228 456.618 248.228C455.279 248.228 454.274 248.73 453.437 249.567C452.601 250.404 452.098 251.743 452.098 253.584V264.129H449.086V252.245C449.086 250.906 448.751 249.901 448.249 249.232C447.746 248.562 446.91 248.228 445.738 248.228C444.901 248.228 444.064 248.395 443.395 248.897C442.725 249.399 442.055 250.069 441.721 250.906C441.386 251.743 441.219 253.082 441.219 254.756V264.296H438.038V264.129Z" fill="#3F697F"/>
<path d="M477.541 264.129V239.022H486.244C488.253 239.022 489.759 239.189 490.764 239.357C492.27 239.691 493.442 240.361 494.446 241.198C495.785 242.369 496.79 243.709 497.459 245.55C498.129 247.224 498.463 249.232 498.463 251.576C498.463 253.417 498.296 255.258 497.794 256.597C497.292 258.103 496.789 259.275 496.12 260.279C495.45 261.284 494.614 261.953 493.777 262.623C492.94 263.125 491.935 263.627 490.764 263.962C489.592 264.297 488.253 264.464 486.747 264.464H477.541V264.129ZM480.888 261.116H486.244C487.918 261.116 489.257 260.949 490.094 260.614C491.098 260.279 491.768 259.945 492.27 259.275C493.107 258.438 493.609 257.434 494.111 256.095C494.614 254.756 494.781 253.082 494.781 251.241C494.781 248.563 494.279 246.554 493.442 245.215C492.605 243.876 491.601 242.872 490.262 242.369C489.425 242.035 487.918 241.867 485.91 241.867H480.553V261.116H480.888Z" fill="#3F697F"/>
<path d="M502.815 264.129V239.022H512.189C514.03 239.022 515.704 239.357 516.875 239.859C518.047 240.361 518.884 241.198 519.553 242.202C520.223 243.206 520.558 244.378 520.558 245.55C520.558 246.554 520.223 247.558 519.721 248.563C519.219 249.567 518.214 250.236 517.043 250.906C518.549 251.408 519.721 252.078 520.558 253.249C521.395 254.254 521.729 255.593 521.729 257.099C521.729 258.271 521.562 259.442 521.06 260.447C520.558 261.451 519.888 262.288 519.219 262.79C518.549 263.292 517.545 263.794 516.541 263.962C515.369 264.297 514.03 264.464 512.523 264.464H502.815V264.129ZM506.163 249.567H511.686C513.193 249.567 514.197 249.4 514.867 249.232C515.704 249.065 516.373 248.563 516.708 248.06C517.21 247.558 517.377 246.721 517.377 245.885C517.377 245.048 517.21 244.378 516.708 243.709C516.373 243.039 515.704 242.704 515.034 242.369C514.365 242.202 513.026 242.035 511.184 242.035H506.163V249.567ZM506.163 261.116H512.356C513.36 261.116 514.197 261.116 514.699 260.949C515.536 260.782 516.038 260.614 516.541 260.279C517.043 259.945 517.545 259.442 517.88 258.94C518.214 258.271 518.382 257.601 518.382 256.764C518.382 255.76 518.214 255.091 517.712 254.254C517.21 253.584 516.541 253.082 515.704 252.747C514.867 252.412 513.695 252.245 512.021 252.245H506.163V261.116Z" fill="#3F697F"/>
<path d="M293.588 74.6526V57.9144H299.446C300.786 57.9144 301.79 57.9144 302.459 58.0818C303.464 58.2492 304.301 58.7513 304.97 59.2535C305.807 59.923 306.476 60.9273 306.979 62.099C307.481 63.2707 307.648 64.6097 307.648 66.1162C307.648 67.4552 307.481 68.4595 307.146 69.4638C306.811 70.4681 306.477 71.305 305.974 71.9745C305.472 72.6441 304.97 73.1462 304.468 73.481C303.966 73.8157 303.296 74.1505 302.459 74.3179C301.622 74.4853 300.786 74.6526 299.781 74.6526H293.588ZM295.764 72.6441H299.279C300.451 72.6441 301.288 72.4767 301.957 72.3093C302.627 72.1419 303.129 71.8071 303.464 71.4724C303.966 70.9702 304.468 70.3007 304.635 69.2964C304.97 68.4595 305.137 67.2878 305.137 66.1162C305.137 64.4423 304.803 62.9359 304.301 62.099C303.798 61.0947 302.961 60.5925 302.125 60.2578C301.455 60.0904 300.618 59.923 299.279 59.923H295.764V72.6441Z" fill="#5085A1"/>
<path d="M318.528 70.803L320.704 71.1377C320.369 72.3094 319.7 73.3137 318.863 73.9832C318.026 74.6528 316.854 74.9875 315.348 74.9875C313.507 74.9875 312.168 74.4854 311.163 73.3137C310.159 72.142 309.657 70.6356 309.657 68.627C309.657 66.6184 310.159 64.9446 311.163 63.9403C312.168 62.936 313.507 62.2665 315.18 62.2665C316.854 62.2665 318.193 62.7686 319.198 63.9403C320.202 65.112 320.704 66.6184 320.704 68.627C320.704 68.7944 320.704 68.9618 320.704 69.1291H311.665C311.665 70.4682 312.168 71.4725 312.837 72.142C313.507 72.8115 314.343 73.1463 315.348 73.1463C316.185 73.1463 316.687 72.9789 317.356 72.4768C318.026 71.9746 318.193 71.6399 318.528 70.803ZM311.833 67.4553H318.695C318.528 66.451 318.361 65.6141 317.859 65.112C317.189 64.2751 316.352 63.9403 315.348 63.9403C314.343 63.9403 313.674 64.2751 313.004 64.9446C312.168 65.4467 311.833 66.451 311.833 67.4553Z" fill="#5085A1"/>
<path d="M323.215 79.3395V62.6012H325.056V64.1077C325.558 63.4382 326.06 63.1034 326.562 62.7686C327.065 62.4339 327.734 62.2665 328.571 62.2665C329.575 62.2665 330.58 62.6012 331.249 63.1034C331.919 63.6055 332.588 64.4424 333.09 65.4467C333.592 66.451 333.76 67.4553 333.76 68.627C333.76 69.7987 333.592 70.9703 333.09 71.9746C332.588 72.9789 331.919 73.8158 331.082 74.318C330.245 74.8201 329.408 75.1549 328.404 75.1549C327.734 75.1549 327.065 74.9875 326.562 74.6528C326.06 74.318 325.558 73.9832 325.223 73.4811V79.3395H323.215ZM325.223 68.627C325.223 70.1334 325.558 71.3051 326.228 72.142C326.897 72.9789 327.567 73.3137 328.571 73.3137C329.408 73.3137 330.245 72.9789 330.914 72.142C331.584 71.3051 331.919 70.1334 331.919 68.627C331.919 67.1206 331.584 65.9489 330.914 65.112C330.245 64.2751 329.575 63.9403 328.571 63.9403C327.734 63.9403 326.897 64.2751 326.228 65.112C325.558 65.9489 325.223 67.1206 325.223 68.627Z" fill="#5085A1"/>
<path d="M344.639 70.803L346.815 71.1377C346.481 72.3094 345.811 73.3137 344.974 73.9832C344.137 74.6528 342.966 74.9875 341.459 74.9875C339.618 74.9875 338.279 74.4854 337.275 73.3137C336.27 72.142 335.768 70.6356 335.768 68.627C335.768 66.6184 336.27 64.9446 337.275 63.9403C338.279 62.936 339.618 62.2665 341.292 62.2665C342.966 62.2665 344.305 62.7686 345.309 63.9403C346.313 65.112 346.815 66.6184 346.815 68.627C346.815 68.7944 346.815 68.9618 346.815 69.1291H337.777C337.777 70.4682 338.279 71.4725 338.948 72.142C339.618 72.8115 340.455 73.1463 341.459 73.1463C342.296 73.1463 342.798 72.9789 343.468 72.4768C344.137 71.9746 344.305 71.6399 344.639 70.803ZM337.944 67.4553H344.807C344.639 66.451 344.472 65.6141 343.97 65.112C343.3 64.2751 342.463 63.9403 341.459 63.9403C340.455 63.9403 339.785 64.2751 339.116 64.9446C338.279 65.4467 337.944 66.451 337.944 67.4553Z" fill="#5085A1"/>
<path d="M349.326 74.6527V62.4338H351.167V64.1076C352.004 62.7685 353.343 62.099 355.017 62.099C355.686 62.099 356.356 62.2664 357.025 62.4338C357.695 62.7685 358.029 63.1033 358.364 63.4381C358.699 63.7728 358.866 64.4423 359.034 64.9445C359.034 65.2793 359.201 65.9488 359.201 66.9531V74.4853H357.192V67.1205C357.192 66.2836 357.192 65.614 357.025 65.2793C356.858 64.9445 356.523 64.6097 356.188 64.275C355.853 64.1076 355.351 63.9402 354.682 63.9402C353.845 63.9402 353.008 64.275 352.338 64.7771C351.669 65.2793 351.334 66.4509 351.334 67.9574V74.6527H349.326Z" fill="#5085A1"/>
<path d="M370.249 74.6527V73.1462C369.412 74.3179 368.408 74.9874 366.901 74.9874C365.897 74.9874 365.06 74.6527 364.223 74.1505C363.386 73.6484 362.717 72.8115 362.382 71.9745C361.88 70.9703 361.713 69.966 361.713 68.6269C361.713 67.4552 361.88 66.2836 362.382 65.2793C362.884 64.275 363.386 63.6054 364.223 62.9359C365.06 62.2664 365.897 62.099 366.901 62.099C367.571 62.099 368.24 62.2664 368.91 62.6012C369.579 62.9359 369.914 63.2707 370.249 63.7728V57.7471H372.258V74.4853H370.249V74.6527ZM363.721 68.6269C363.721 70.1333 364.056 71.305 364.725 72.1419C365.395 72.9788 366.232 73.3136 367.069 73.3136C367.906 73.3136 368.743 72.9788 369.412 72.1419C370.082 71.4724 370.416 70.3007 370.416 68.7943C370.416 67.1205 370.082 65.9488 369.412 65.1119C368.743 64.275 367.906 63.9402 367.069 63.9402C366.232 63.9402 365.395 64.275 364.725 65.1119C364.056 65.7814 363.721 66.9531 363.721 68.6269Z" fill="#5085A1"/>
<path d="M383.807 70.803L385.983 71.1377C385.649 72.3094 384.979 73.3137 384.142 73.9832C383.305 74.6528 382.134 74.9875 380.627 74.9875C378.786 74.9875 377.447 74.4854 376.443 73.3137C375.438 72.142 374.936 70.6356 374.936 68.627C374.936 66.6184 375.438 64.9446 376.443 63.9403C377.447 62.936 378.786 62.2665 380.46 62.2665C382.134 62.2665 383.473 62.7686 384.477 63.9403C385.481 65.112 385.983 66.6184 385.983 68.627C385.983 68.7944 385.983 68.9618 385.983 69.1291H376.945C376.945 70.4682 377.447 71.4725 378.116 72.142C378.786 72.8115 379.623 73.1463 380.627 73.1463C381.464 73.1463 381.966 72.9789 382.636 72.4768C383.305 71.9746 383.473 71.6399 383.807 70.803ZM376.945 67.4553H383.807C383.64 66.451 383.473 65.6141 382.971 65.112C382.301 64.2751 381.464 63.9403 380.46 63.9403C379.456 63.9403 378.786 64.2751 378.116 64.9446C377.447 65.4467 377.112 66.451 376.945 67.4553Z" fill="#5085A1"/>
<path d="M388.494 74.6527V62.4338H390.335V64.1076C391.172 62.7685 392.511 62.099 394.185 62.099C394.855 62.099 395.524 62.2664 396.194 62.4338C396.863 62.7685 397.198 63.1033 397.533 63.4381C397.868 63.7728 398.035 64.4423 398.202 64.9445C398.202 65.2793 398.37 65.9488 398.37 66.9531V74.4853H396.361V67.1205C396.361 66.2836 396.361 65.614 396.194 65.2793C396.026 64.9445 395.692 64.6097 395.357 64.275C395.022 64.1076 394.52 63.9402 393.85 63.9402C393.013 63.9402 392.177 64.275 391.507 64.7771C390.837 65.2793 390.503 66.4509 390.503 67.9574V74.6527H388.494Z" fill="#5085A1"/>
<path d="M409.416 70.3008L411.425 70.6356C411.258 71.9746 410.588 73.1463 409.751 73.9832C408.914 74.8201 407.743 75.1549 406.403 75.1549C404.73 75.1549 403.391 74.6527 402.386 73.4811C401.382 72.4768 400.88 70.8029 400.88 68.7944C400.88 67.4553 401.047 66.2836 401.549 65.2793C402.052 64.275 402.721 63.6055 403.558 63.1034C404.395 62.6012 405.399 62.4338 406.403 62.4338C407.743 62.4338 408.747 62.7686 409.584 63.4381C410.421 64.1077 410.923 65.112 411.258 66.2836L409.249 66.6184C409.082 65.7815 408.747 65.112 408.245 64.7772C407.743 64.4424 407.24 64.1077 406.571 64.1077C405.567 64.1077 404.73 64.4424 404.06 65.2793C403.391 66.1162 403.056 67.1205 403.056 68.7944C403.056 70.4682 403.391 71.6399 404.06 72.3094C404.73 72.9789 405.567 73.4811 406.571 73.4811C407.408 73.4811 408.077 73.3137 408.579 72.8115C409.082 72.3094 409.249 71.3051 409.416 70.3008Z" fill="#5085A1"/>
<path d="M413.098 79.3394L412.931 77.3308C413.433 77.4982 413.768 77.4982 414.103 77.4982C414.605 77.4982 414.94 77.4982 415.274 77.3308C415.609 77.1635 415.776 76.9961 415.944 76.6613C416.111 76.4939 416.279 75.9918 416.613 75.1549C416.613 74.9875 416.781 74.8201 416.781 74.6527L412.094 62.4338H414.27L416.781 69.4639C417.116 70.3008 417.45 71.3051 417.618 72.3094C417.785 71.3051 418.12 70.4682 418.455 69.4639L421.133 62.4338H423.141L418.455 74.8201C417.952 76.1592 417.618 76.9961 417.283 77.4982C416.948 78.1678 416.446 78.6699 415.944 79.0047C415.442 79.3394 414.94 79.5068 414.27 79.5068C414.103 79.6742 413.601 79.5068 413.098 79.3394Z" fill="#5085A1"/>
<path d="M293.588 106.455V89.7172H295.764V106.455H293.588Z" fill="#5085A1"/>
<path d="M299.447 106.455V94.2365H301.288V95.9103C302.125 94.5713 303.464 93.9017 305.138 93.9017C305.807 93.9017 306.477 94.0691 307.146 94.2365C307.816 94.5713 308.15 94.906 308.485 95.2408C308.82 95.5756 308.987 96.2451 309.155 96.7472C309.155 97.082 309.322 97.7515 309.322 98.7558V106.288H307.314V98.9232C307.314 98.0863 307.314 97.4168 307.146 97.082C306.979 96.7472 306.644 96.4125 306.309 96.0777C305.974 95.9103 305.472 95.7429 304.803 95.7429C303.966 95.7429 303.129 96.0777 302.459 96.5799C301.79 97.082 301.455 98.2537 301.455 99.7601V106.455H299.447Z" fill="#5085A1"/>
<path d="M309.824 111.309L310.159 109.636C310.493 109.803 310.828 109.803 311.163 109.803C311.665 109.803 311.833 109.636 312.167 109.468C312.502 109.301 312.502 108.464 312.502 107.46V94.7386H314.511V107.125C314.511 108.631 314.343 109.636 314.009 110.305C313.506 111.142 312.669 111.477 311.498 111.477C310.996 111.477 310.326 111.309 309.824 111.309ZM312.502 92.0605V89.7172H314.511V92.0605H312.502Z" fill="#5085A1"/>
<path d="M326.061 102.606L328.237 102.94C327.902 104.112 327.232 105.116 326.395 105.786C325.558 106.455 324.387 106.79 322.88 106.79C321.039 106.79 319.7 106.288 318.696 105.116C317.691 103.945 317.189 102.438 317.189 100.43C317.189 98.421 317.691 96.7472 318.696 95.7429C319.7 94.7386 321.039 94.0691 322.713 94.0691C324.387 94.0691 325.726 94.5712 326.73 95.7429C327.734 96.9146 328.237 98.421 328.237 100.43C328.237 100.597 328.237 100.764 328.237 100.932H319.198C319.198 102.271 319.7 103.275 320.37 103.945C321.039 104.614 321.876 104.949 322.88 104.949C323.717 104.949 324.219 104.782 324.889 104.279C325.558 103.777 325.726 103.442 326.061 102.606ZM319.198 99.2579H326.061C325.893 98.2536 325.726 97.4167 325.224 96.9146C324.554 96.0777 323.717 95.7429 322.713 95.7429C321.709 95.7429 321.039 96.0777 320.37 96.7472C319.7 97.4167 319.365 98.2536 319.198 99.2579Z" fill="#5085A1"/>
<path d="M338.614 102.104L340.622 102.438C340.455 103.777 339.785 104.949 338.948 105.786C338.111 106.623 336.94 106.958 335.601 106.958C333.927 106.958 332.588 106.455 331.583 105.284C330.579 104.28 330.077 102.606 330.077 100.597C330.077 99.258 330.244 98.0864 330.747 97.0821C331.249 96.0778 331.918 95.4082 332.755 94.9061C333.592 94.404 334.596 94.2366 335.601 94.2366C336.94 94.2366 337.944 94.5713 338.781 95.2409C339.618 95.9104 340.12 96.9147 340.455 98.0864L338.446 98.4211C338.279 97.5842 337.944 96.9147 337.442 96.5799C336.94 96.2452 336.438 95.9104 335.768 95.9104C334.764 95.9104 333.927 96.2452 333.257 97.0821C332.588 97.919 332.253 98.9233 332.253 100.597C332.253 102.271 332.588 103.443 333.257 104.112C333.927 104.782 334.764 105.284 335.768 105.284C336.605 105.284 337.274 105.116 337.777 104.614C338.279 104.112 338.446 103.108 338.614 102.104Z" fill="#5085A1"/>
<path d="M346.983 104.614L347.318 106.455C346.816 106.623 346.146 106.623 345.811 106.623C345.142 106.623 344.472 106.455 344.138 106.288C343.803 106.121 343.468 105.786 343.301 105.284C343.133 104.782 342.966 104.112 342.966 102.773V95.7429H341.46V94.0691H342.966V91.0562L344.975 89.8845V94.0691H346.983V95.7429H344.807V102.773C344.807 103.442 344.807 103.777 344.975 103.945C344.975 104.112 345.142 104.279 345.309 104.279C345.477 104.447 345.644 104.447 345.979 104.447C346.314 104.782 346.648 104.782 346.983 104.614Z" fill="#5085A1"/>
<path d="M348.992 92.0605V89.7172H351.001V92.0605H348.992ZM348.992 106.455V94.2365H351.001V106.455H348.992Z" fill="#5085A1"/>
<path d="M353.344 100.43C353.344 98.2536 354.014 96.5798 355.185 95.4081C356.189 94.5712 357.529 94.0691 359.035 94.0691C360.709 94.0691 362.048 94.5712 363.052 95.7429C364.056 96.9146 364.726 98.421 364.726 100.262C364.726 101.769 364.559 103.108 364.056 103.945C363.554 104.782 362.885 105.618 362.048 105.953C361.211 106.455 360.207 106.623 359.035 106.623C357.361 106.623 356.022 106.121 354.85 104.949C353.846 104.112 353.344 102.438 353.344 100.43ZM355.52 100.43C355.52 101.936 355.855 103.108 356.524 103.945C357.194 104.782 358.031 105.116 359.035 105.116C360.039 105.116 360.876 104.782 361.546 103.945C362.215 103.108 362.55 101.936 362.55 100.43C362.55 98.9232 362.215 97.7515 361.546 97.082C360.876 96.2451 360.039 95.9103 359.035 95.9103C358.031 95.9103 357.194 96.2451 356.524 97.082C355.855 97.9189 355.52 98.9232 355.52 100.43Z" fill="#5085A1"/>
<path d="M367.236 106.455V94.2365H369.077V95.9103C369.914 94.5713 371.253 93.9017 372.927 93.9017C373.597 93.9017 374.266 94.0691 374.936 94.2365C375.605 94.5713 375.94 94.906 376.275 95.2408C376.609 95.5756 376.777 96.2451 376.944 96.7472C376.944 97.082 377.112 97.7515 377.112 98.7558V106.288H374.936V98.9232C374.936 98.0863 374.936 97.4168 374.768 97.082C374.601 96.7472 374.266 96.4125 373.931 96.0777C373.597 95.9103 373.094 95.7429 372.425 95.7429C371.588 95.7429 370.751 96.0777 370.082 96.5799C369.412 97.082 369.077 98.2537 369.077 99.7601V106.455H367.236Z" fill="#5085A1"/>
<path d="M0 305.138L8.20172 283.545H11.2146L20.0859 305.138H16.9056L14.3949 298.61H5.35623L3.01288 305.138H0ZM6.19314 296.266H13.558L11.382 290.241C10.7125 288.399 10.2103 286.893 9.87554 285.721C9.54078 287.06 9.20601 288.399 8.70387 289.906L6.19314 296.266Z" fill="#5085A1"/>
<path d="M22.0948 305.138V289.571H24.4382V291.747C25.6099 290.073 27.2837 289.236 29.4597 289.236C30.464 289.236 31.3009 289.404 32.1378 289.738C32.9747 290.073 33.4768 290.575 33.979 291.077C34.4811 291.58 34.6485 292.249 34.8159 293.086C34.9833 293.588 34.9833 294.425 34.9833 295.597V305.138H32.3052V295.597C32.3052 294.592 32.1378 293.756 31.9704 293.253C31.803 292.751 31.4682 292.249 30.7987 291.914C30.1292 291.58 29.627 291.412 28.9575 291.412C27.7858 291.412 26.7815 291.747 26.112 292.417C25.4425 293.086 24.9403 294.425 24.9403 296.434V304.97H22.0948V305.138Z" fill="#5085A1"/>
<path d="M49.0433 305.138V303.129C48.039 304.636 46.5326 305.472 44.6914 305.472C43.5197 305.472 42.3481 305.138 41.1764 304.468C40.1721 303.799 39.3352 302.794 38.6656 301.623C38.1635 300.451 37.8287 298.945 37.8287 297.438C37.8287 295.932 38.1635 294.425 38.6656 293.254C39.1678 292.082 40.0047 291.078 41.009 290.408C42.0133 289.738 43.185 289.404 44.524 289.404C45.5283 289.404 46.3652 289.571 47.0347 290.073C47.7043 290.575 48.3738 290.91 48.876 291.58V283.88H51.5541V305.472H49.0433V305.138ZM40.6742 297.438C40.6742 299.447 41.1764 300.953 42.0133 301.957C42.8502 302.962 43.8545 303.464 45.0262 303.464C46.1978 303.464 47.2021 302.962 48.039 302.125C48.876 301.12 49.2107 299.781 49.2107 297.773C49.2107 295.597 48.876 294.09 48.039 293.086C47.2021 292.082 46.1978 291.58 45.0262 291.58C43.8545 291.58 42.8502 292.082 42.0133 293.086C41.009 293.756 40.6742 295.262 40.6742 297.438Z" fill="#5085A1"/>
<path d="M55.5709 305.138V289.571H57.9143V291.914C58.5838 290.743 59.0859 290.073 59.5881 289.738C60.0902 289.404 60.5924 289.236 61.2619 289.236C62.0988 289.236 63.1031 289.571 63.94 290.073L63.1031 292.584C62.4336 292.249 61.7641 292.082 61.0945 292.082C60.5924 292.082 59.9229 292.249 59.5881 292.584C59.2533 292.919 58.7512 293.421 58.5838 294.09C58.249 295.095 58.0817 296.099 58.0817 297.103V305.305H55.5709V305.138Z" fill="#5085A1"/>
<path d="M64.6097 297.271C64.6097 294.425 65.4467 292.249 66.9531 290.91C68.2922 289.738 69.966 289.236 71.8072 289.236C73.9831 289.236 75.657 289.906 76.996 291.412C78.3351 292.919 79.0046 294.76 79.0046 297.271C79.0046 299.279 78.6698 300.786 78.1677 301.957C77.4982 303.129 76.6613 303.966 75.4896 304.635C74.3179 305.305 73.1462 305.64 71.6398 305.64C69.4638 305.64 67.6226 304.97 66.2836 303.464C65.2793 301.957 64.6097 299.949 64.6097 297.271ZM67.4552 297.271C67.4552 299.279 67.9574 300.786 68.7943 301.79C69.6312 302.794 70.8029 303.296 72.1419 303.296C73.481 303.296 74.4853 302.794 75.4896 301.79C76.4939 300.786 76.8286 299.279 76.8286 297.271C76.8286 295.262 76.3265 293.923 75.4896 292.919C74.6527 291.914 73.481 291.412 72.1419 291.412C70.8029 291.412 69.7986 291.914 68.7943 292.919C67.79 293.923 67.4552 295.262 67.4552 297.271Z" fill="#5085A1"/>
<path d="M82.519 286.558V283.545H85.1972V286.558H82.519ZM82.519 305.138V289.571H85.1972V305.138H82.519Z" fill="#5085A1"/>
<path d="M99.2578 305.138V303.129C98.2535 304.636 96.7471 305.472 94.9059 305.472C93.7342 305.472 92.5625 305.138 91.3909 304.468C90.3866 303.799 89.5497 302.794 88.8801 301.623C88.378 300.451 88.0432 298.945 88.0432 297.438C88.0432 295.932 88.378 294.425 88.8801 293.254C89.3823 292.082 90.2192 291.078 91.2235 290.408C92.2278 289.738 93.3994 289.404 94.7385 289.404C95.7428 289.404 96.5797 289.571 97.2492 290.073C97.9188 290.575 98.5883 290.91 99.0904 291.58V283.88H101.769V305.472H99.2578V305.138ZM90.8887 297.438C90.8887 299.447 91.3909 300.953 92.2278 301.957C93.0647 302.962 94.069 303.464 95.2406 303.464C96.4123 303.464 97.4166 302.962 98.2535 302.125C99.0904 301.12 99.4252 299.781 99.4252 297.773C99.4252 295.597 99.0904 294.09 98.2535 293.086C97.4166 292.082 96.4123 291.58 95.2406 291.58C94.069 291.58 93.0647 292.082 92.2278 293.086C91.2235 293.756 90.8887 295.262 90.8887 297.438Z" fill="#5085A1"/>
<path d="M113.652 298.275L116.33 298.108C116.498 299.112 116.832 300.116 117.167 300.786C117.669 301.455 118.339 301.957 119.343 302.459C120.347 302.962 121.352 303.129 122.691 303.129C123.862 303.129 124.699 302.962 125.536 302.627C126.373 302.292 127.043 301.79 127.377 301.288C127.712 300.786 128.047 300.116 128.047 299.447C128.047 298.777 127.88 298.108 127.377 297.605C126.875 297.103 126.373 296.601 125.369 296.266C124.867 296.099 123.528 295.764 121.519 295.262C119.51 294.76 118.171 294.258 117.335 293.923C116.33 293.421 115.493 292.751 114.991 291.914C114.489 291.077 114.154 290.241 114.154 289.236C114.154 288.065 114.489 287.06 115.159 286.223C115.828 285.387 116.665 284.55 117.837 284.047C119.008 283.545 120.347 283.378 121.854 283.378C123.528 283.378 124.867 283.713 126.038 284.215C127.21 284.717 128.214 285.554 128.884 286.558C129.553 287.562 129.888 288.734 129.888 289.906L127.21 290.073C127.043 288.734 126.541 287.73 125.704 287.06C124.867 286.391 123.528 286.056 122.021 286.056C120.347 286.056 119.008 286.391 118.171 287.06C117.335 287.73 117 288.399 117 289.404C117 290.241 117.335 290.743 117.837 291.245C118.339 291.747 119.845 292.249 122.189 292.751C124.532 293.253 126.038 293.756 127.043 294.09C128.382 294.593 129.219 295.429 129.888 296.266C130.558 297.103 130.725 298.108 130.725 299.279C130.725 300.451 130.39 301.455 129.721 302.459C129.051 303.464 128.047 304.301 126.875 304.803C125.704 305.305 124.197 305.64 122.691 305.64C120.682 305.64 119.176 305.305 117.837 304.803C116.498 304.301 115.493 303.296 114.656 302.292C113.987 300.953 113.652 299.614 113.652 298.275Z" fill="#5085A1"/>
<path d="M134.742 305.138V283.545H142.107C143.781 283.545 145.12 283.713 145.957 283.88C147.129 284.215 148.3 284.717 149.137 285.387C150.309 286.391 151.146 287.562 151.648 289.069C152.15 290.575 152.485 292.249 152.485 294.258C152.485 295.932 152.318 297.271 151.983 298.61C151.648 299.949 151.146 300.953 150.476 301.79C149.807 302.627 149.305 303.296 148.468 303.799C147.798 304.301 146.961 304.635 145.957 304.803C144.953 304.97 143.781 305.138 142.442 305.138H134.742ZM137.588 302.627H142.275C143.614 302.627 144.785 302.459 145.622 302.292C146.459 301.957 147.129 301.623 147.631 301.12C148.3 300.451 148.803 299.614 149.137 298.442C149.472 297.271 149.639 295.932 149.639 294.258C149.639 292.082 149.305 290.241 148.468 289.069C147.631 287.897 146.794 287.06 145.79 286.558C144.953 286.223 143.781 286.056 142.107 286.056H137.588V302.627Z" fill="#5085A1"/>
<path d="M156.335 305.138V283.545H159.18V294.258L169.893 283.545H173.742L164.704 292.249L174.077 305.138H170.227L162.528 294.258L159.013 297.773V305.305H156.335V305.138Z" fill="#5085A1"/>
<defs>
<linearGradient id="paint0_linear_1_218" x1="44.4508" y1="194.055" x2="84.0234" y2="154.464" gradientUnits="userSpaceOnUse">
<stop offset="0.108" stop-color="#B65DA3"/>
<stop offset="0.173" stop-color="#C95DA2"/>
<stop offset="0.492" stop-color="#E7744F"/>
<stop offset="0.716" stop-color="#F48220"/>
<stop offset="0.823" stop-color="#F5881F"/>
</linearGradient>
<linearGradient id="paint1_linear_1_218" x1="64.7768" y1="205.204" x2="70.5274" y2="182.425" gradientUnits="userSpaceOnUse">
<stop offset="0.296" stop-color="#45A7DE"/>
<stop offset="0.694" stop-color="#5C7ABB"/>
<stop offset="1" stop-color="#7963AA"/>
</linearGradient>
<linearGradient id="paint2_linear_1_218" x1="51.1174" y1="166.651" x2="65.3109" y2="153.814" gradientUnits="userSpaceOnUse">
<stop offset="0.296" stop-color="#45A7DE"/>
<stop offset="0.694" stop-color="#5C7ABB"/>
<stop offset="1" stop-color="#7963AA"/>
</linearGradient>
<radialGradient id="paint3_radial_1_218" cx="0" cy="0" r="1" gradientUnits="userSpaceOnUse" gradientTransform="translate(461.877 129.446) scale(30.5178 22.2531)">
<stop stop-color="#EC178D"/>
<stop offset="1" stop-color="#4F2C84"/>
</radialGradient>
<radialGradient id="paint4_radial_1_218" cx="0" cy="0" r="1" gradientUnits="userSpaceOnUse" gradientTransform="translate(462.144 124.127) scale(31.0334 23.8283)">
<stop stop-color="#572C86"/>
<stop offset="0.2917" stop-color="#5B2C86"/>
<stop offset="1" stop-color="#EC178D"/>
</radialGradient>
<linearGradient id="paint5_linear_1_218" x1="450.352" y1="140.283" x2="455.896" y2="149.617" gradientUnits="userSpaceOnUse">
<stop stop-color="#EC178D"/>
<stop offset="0.6697" stop-color="#E1118C"/>
<stop offset="0.8271" stop-color="#D2128B" stop-opacity="0.2"/>
<stop offset="1" stop-color="#BD1A8C" stop-opacity="0"/>
</linearGradient>
<linearGradient id="paint6_linear_1_218" x1="449.977" y1="120.673" x2="449.176" y2="119.136" gradientUnits="userSpaceOnUse">
<stop stop-color="#AE1F8D" stop-opacity="0.1513"/>
<stop offset="0.4004" stop-color="#EC178D" stop-opacity="0.4"/>
<stop offset="0.649" stop-color="#EC178D" stop-opacity="0.8917"/>
<stop offset="1" stop-color="#EC228D"/>
</linearGradient>
</defs>
</svg>
